<svg xmlns="http://www.w3.org/2000/svg" width="22.192" height="32.658" viewBox="0 0 22.192 32.658"><defs><style>.a,.d{fill:#fff;}.a{stroke:rgba(0,0,0,0);stroke-miterlimit:10;opacity:0;}.b,.c{fill:#333;}.b,.d{fill-rule:evenodd;}</style></defs><g transform="translate(-1073.717 -290)"><path class="a" d="M-1120.978-255.613v-15.152h-2.988v-5.358h2.315v-.007h.666c0-.166,0-.3,0-.429.012-1.253-.043-2.51.052-3.756a5.724,5.724,0,0,1,2.764-4.8,5.476,5.476,0,0,1,2.71-.792c.992-.02,1.984-.021,2.981-.018,1.6-.019,3.2,0,4.818,0v5.177h-2.316v.009h-1.144a1.2,1.2,0,0,0-1.227,1.245c-.041,1.1-.01,2.2-.01,3.345h4.8l-.55,5.364h-2.314v.008h-1.931v15.158h-2.314v.007Z" transform="translate(2198.183 577.187)"/><path class="b" d="M-43.024,17.131v.106h-.027v-.106Z" transform="translate(1123.966 284.188)"/><path class="b" d="M-43.024,17.1A.045.045,0,0,0-43,17.092c.014,0,.014,0,.014.013v.026h-.04Z" transform="translate(1123.966 284.188)"/><rect class="c" width="0.04" height="0.106" transform="translate(1080.982 301.319)"/><path class="b" d="M-41.11,16.062v.1H-41.2c-.013-.013,0-.026,0-.039v-.04s-.013-.026.013-.026Z" transform="translate(1123.966 284.188)"/><path class="b" d="M-40.965,16.062h-.145v-.119c0-.026.026.013.04,0a.018.018,0,0,1,.026,0h.079V16a.017.017,0,0,1,0,.026C-40.978,16.035-40.938,16.049-40.965,16.062Z" transform="translate(1123.966 284.188)"/><path class="b" d="M-39.645,36.867h-.039v-.04h.039Z" transform="translate(1123.966 284.188)"/><path class="b" d="M-39.526,36.972h-.1a.307.307,0,0,1-.014-.1h.119c.013,0,.013,0,0,.026h.238s.013.04,0,.04h-.238C-39.565,36.946-39.486,36.959-39.526,36.972Z" transform="translate(1123.966 284.188)"/><path class="b" d="M-33.334,15.943v.027h-.053c-.027,0,0-.027,0-.027h.013C-33.361,15.943-33.348,15.917-33.334,15.943Z" transform="translate(1123.966 284.188)"/><path class="b" d="M-33.189,15.983v.066h-.145V15.97C-33.282,15.97-33.229,15.983-33.189,15.983Z" transform="translate(1123.966 284.188)"/><path class="d" d="M-28.067,10.94h-.225c-.039,0,.014-.027,0-.027h-.237c-.027-.013.013-.039,0-.039s0-.027,0-.04v-.026h.237c.014-.013,0-.04,0-.04h-.237c-.027,0,.013-.026,0-.039h-.238c-.013,0,0-.04,0-.04h.238c.013,0,0-.026,0-.026v-.146c0-.013.013-.026,0-.039v-.027c0-.013.013-.026,0-.039s.026-.026,0-.04h-.225s-.026-.026,0-.026h.225c.026-.013,0-.027,0-.04s-.014-.026,0-.039a.019.019,0,0,0,0-.027V10.1h.237c.014,0,0-.04,0-.04h-.237c-.027,0,.013-.026,0-.026s0-.026,0-.04.026-.026,0-.039h-.225c-.039,0,.027-.027,0-.027h.225c.039-.013,0-.039,0-.039.026-.014,0-.027.013-.04s-.013-.026,0-.039V9.778c0-.013-.027-.026,0-.039,0,0-.04-.027,0-.04h.224c.027,0,0-.026,0-.026h-.224c-.04-.014,0-.027,0-.04-.027-.013,0-.026,0-.04V9.567c-.013-.013,0-.027,0-.04V9.356c0-.013-.027-.027,0-.04h.224c.027,0,0-.04,0-.04h-.224c-.027,0,.013-.026,0-.026s0-.026,0-.04V8.749c0-.014-.027-.027,0-.04h.238c.013,0,0-.026,0-.026h-.238c-.027-.014.013-.027,0-.04s0-.027,0-.04V8.181c.013-.013,0-.027,0-.04V8.009c0-.013-.013-.026,0-.039h.238c.026,0,0-.04,0-.04V7.9H-28.5c-.04-.014,0-.027,0-.04-.026-.013-.013-.026,0-.04s-.026-.026,0-.026h.225V7.759c0-.014.013-.027,0-.04s.026-.027,0-.027H-28.5c-.026-.013,0-.039,0-.039V7.23c0-.013-.013-.026,0-.039s-.026-.027,0-.04h.238s.013-.026,0-.026H-28.5c-.013,0,0-.04,0-.04V6.913c0-.013-.013-.026,0-.039h.238v-.04H-28.5V6.082h-.673s-.027.026-.027,0V5.844s-.039-.013-.039,0v.238c-.013.026-.027,0-.04,0h-.382s-.04.026-.04,0V5.844c-.013-.013-.027,0-.04,0s-.026-.013-.026,0v.238c-.013-.013-.027,0-.04,0s-.026.013-.039,0-.027.026-.027,0-.013-.2-.013-.238c0-.013-.026,0-.026,0v.238c0,.013-.04,0-.04,0s-.026.013-.039,0V5.844h-.027c-.013,0-.026-.013-.04,0v.238c0,.013-.039,0-.039,0a.019.019,0,0,0-.027,0h-.145c-.013,0-.026-.013-.039,0h-.027c-.013,0-.026-.013-.039,0s-.027-.04-.04,0v.224c0,.04-.026-.026-.026,0h-.08V6.069c0-.027-.026.039-.039,0V5.844c0-.039-.027.027-.027,0h-.1s-.04-.026-.04,0v.225c-.013.026-.026-.027-.039,0v.237s-.027.013-.027,0V6.069h-.29c-.013.013-.027,0-.04,0H-31.2c-.013,0-.026-.013-.039,0s.013.224.013.237-.04-.013-.04,0-.026,0-.039,0h-.106c-.013,0-.027.013-.04,0V6.069c0-.013-.026,0-.026,0s-.04-.013-.04,0v.237c0,.013-.026,0-.039,0h-.066c-.013-.013-.027,0-.04,0s-.026.013-.026,0V6.069c-.013-.027-.04.013-.04,0s-.026,0-.04,0h-.066s-.039.026-.039,0V5.831h-.066c-.013.026-.026-.013-.04,0v.238c-.013.026-.026,0-.039,0s-.027-.027-.027,0v.237c-.013.027-.026-.026-.039,0s-.027,0-.04,0l-.026-.013h-.04s-.026.026-.04,0V6.069c0-.027-.026,0-.039,0s-.026-.027-.026,0v.224h-.067c-.013,0-.026.026-.039,0V6.069c-.013-.04-.04.026-.04,0V5.831h-.184c0,.053.013.2.013.238s-.027-.013-.04,0-.026-.013-.04,0-.026-.027-.026,0v.224a.025.025,0,0,1-.04,0s-.026.026-.039,0V6.069c-.013-.027-.027,0-.027,0h-.039c-.013,0-.027-.013-.04,0s-.026-.027-.039,0,.013.2.013.224-.04,0-.04,0-.026.026-.039,0V6.056c0-.014-.04,0-.04,0s-.026-.014-.026,0v.237c0,.026-.04,0-.04,0s-.026.026-.026,0-.014-.2-.014-.237c0-.014-.026,0-.026,0h-.713c-.013,0-.026-.014-.039,0a.019.019,0,0,1-.027,0s-.039-.027-.039,0v.237s-.027.013-.04,0V6.056c0-.027-.027.013-.04,0h-.066c-.013,0-.026.013-.039,0h-.066c-.013,0-.027.013-.04,0s-.026.026-.026,0-.013-.2-.013-.238c0-.013-.027,0-.027,0v.238c0,.013-.04,0-.04,0h-.026c-.013.013-.026,0-.04,0h-.066c-.013,0-.039-.027-.039,0V6.28c0,.026-.04,0-.04,0V6.056c0-.014-.039,0-.039,0h-.33c-.014,0-.04-.014-.04,0s-.04-.027-.04.013.014.2.014.224-.04,0-.04,0-.013-.211-.013-.224-.04,0-.04,0-.039-.013-.053,0-.026-.027-.039.013a1.177,1.177,0,0,1,.026.224c0,.013-.039,0-.039,0a1.374,1.374,0,0,0-.027-.224c0-.026-.039,0-.039,0s-.027.013-.04,0-.026.013-.04.013h-.079c0-.039-.026-.185-.026-.224s-.027.013-.04,0-.026.013-.039.013-.027-.013-.04,0,.027.211.027.237-.027-.013-.04,0-.027,0-.04,0-.039-.013-.039.014a1.33,1.33,0,0,1,.039.224c-.013-.026-.026.053-.026.013s-.04-.2-.053-.224-.013.026-.04,0a1.359,1.359,0,0,0-.039-.225c0-.026-.027,0-.04,0l.04.225c.013.039-.027,0-.04.013s-.026,0-.026.013h-.04l-.039.013L-36,6.2c-.013,0-.026.013-.04,0s-.026.039-.039.013a1.309,1.309,0,0,1-.053-.225c-.013-.026-.04,0-.04,0s.053.225.053.238-.039,0-.039,0-.04-.013-.04.013-.026,0-.04.013-.039-.013-.039,0c.013.04.053.185.066.238-.027-.026-.027.04-.04,0s-.053-.185-.066-.224c-.013,0-.026.013-.039.013s-.027.013-.04.013l-.04.013c-.013,0-.013.013-.039.013a.045.045,0,0,1-.027.014c-.013-.027-.066-.2-.079-.225s-.026.013-.039.013-.027,0-.04.014-.04-.014-.04,0,.066.211.08.224-.04.013-.04.013l-.04.014-.066.026-.158.053a.049.049,0,0,1-.04.013s-.013.026-.026.026-.093-.224-.093-.224-.039,0-.039.013c.013.04.079.185.092.225s-.053-.027-.039.013a1.535,1.535,0,0,0,.092.211l-.04.013c0,.013-.013.04-.039.013,0-.013-.079-.185-.093-.211s-.013.026-.026.013-.026.053-.039.027-.093-.211-.093-.211-.04,0-.04.013.08.171.093.211a.051.051,0,0,0-.04.013s-.026,0-.026.013.092.212.092.212-.026.013-.026.013a.049.049,0,0,1-.04.026c0-.013-.105-.211-.105-.211s-.014.013-.027.013l-.145.079-.04.013-.039.014-.027.026-.066.04-.145.079-.026.013-.066.04-.145.092-.027.013-.066.04-.132.092-.026.027-.132.092-.04.027-.026.026-.04.013-.119.106-.026.026-.04.027c0,.013-.013.013-.026.026l-.026.026c-.014,0-.027,0-.04.027,0,0,.145.158.158.171s-.026.027-.026.027-.145-.159-.158-.172-.027.027-.027.027-.039,0-.026.026a1.869,1.869,0,0,1,.145.172c0,.013-.026.026-.026.026s0,.04-.027.026a1.892,1.892,0,0,0-.158-.171c-.014,0-.027.026-.027.026l-.026.027-.04.026c0,.013-.026.013-.026.026l.172.172c0,.013-.027.027-.027.027s-.013.039-.04.026a2.067,2.067,0,0,0-.158-.172l-.026.027-.027.039c-.013,0-.039,0-.039.027l.171.158c.027.026-.026.013-.026.026s-.013.027-.027.027l-.026.039a1.92,1.92,0,0,0-.172-.158c-.013,0-.026.026-.026.026a.028.028,0,0,1-.026.027c-.013,0-.013.026-.027.026l-.026.04-.027.026-.026.027a1.9,1.9,0,0,1,.172.158c.013.013-.014.026-.014.026s-.013.027-.026.027-.171-.132-.185-.145-.013.026-.026.026-.013.027-.027.04l-.026.026c0,.013-.04.013-.013.026a.923.923,0,0,0,.171.146c.027.026-.026.026-.013.039s-.026.014-.026.027-.013.026-.026.026,0,.04-.027.04-.185-.146-.185-.146l-.026.04-.092.132-.027.026c0,.014-.013.014-.013.04a2.128,2.128,0,0,0,.185.119c.013.013-.014.04-.014.04s-.026.013-.026.026-.013.026-.026.04l-.014.026-.026.04-.013.026-.026.039-.014.027-.026.039s0,.027-.013.027a1.6,1.6,0,0,1-.2-.119c-.027,0-.027.04-.027.04a.048.048,0,0,0-.026.039c.013,0,.211.106.211.106s0,.04-.026.04-.185-.106-.2-.119-.014.026-.027.039l-.013.04-.013.026c-.013.014-.04.027-.027.04s.185.092.212.1-.014.04-.014.04,0,.04-.026.027-.2-.093-.211-.106-.013.026-.013.039-.014.027-.014.04a1.469,1.469,0,0,1,.2.106c.027,0-.013.026-.013.026s0,.04-.013.04-.211-.106-.211-.106a.048.048,0,0,0-.014.04c-.013.013-.039.013-.026.039a1.492,1.492,0,0,1,.211.093c.027.013-.013.026-.013.039s0,.027-.013.027a1.385,1.385,0,0,1-.211-.093c-.027,0-.013.027-.013.04a.048.048,0,0,0-.027.039c.013,0,.225.093.225.093l-.014.026c-.013.014,0,.04-.026.04s-.185-.079-.211-.092-.013.039-.013.039-.04.027-.014.04a1.4,1.4,0,0,0,.212.079c.013.026-.014.026-.014.04a.048.048,0,0,1-.013.039s.013.04-.013.04a1.494,1.494,0,0,1-.211-.093c-.027,0-.013.027-.027.04a.051.051,0,0,1-.013.04.048.048,0,0,1-.013.039c0,.013-.013.013-.013.04.013,0-.04.013-.013.026s.2.066.224.08-.013.039-.013.039,0,.04-.013.04a2.206,2.206,0,0,0-.225-.079c-.026,0,0,.026-.013.039l-.013.04V10.5c-.014,0-.04.013-.014.027s.2.066.212.079,0,.026,0,.026,0,.04-.013.04-.225-.066-.225-.066a.025.025,0,0,0-.013.039c.013,0,.224.067.224.067s-.013.026-.013.039l-.013.026-.013.04v.04l-.013.039-.014.04-.013.026v.04l-.026.079v.04l-.027.066v.039l-.013.04v.04s.013.026-.013.026-.224-.04-.224-.04a.026.026,0,0,0-.014.04c.027,0,.2.04.225.04s0,.039,0,.039,0,.026-.014.04.014.039,0,.039-.237-.053-.237-.053,0,.027,0,.04a.129.129,0,0,0-.013.04c.013,0,.237.039.237.039l-.013.04c0,.013.013.026,0,.04s.013.026-.013.039a1.348,1.348,0,0,0-.224-.039c-.027,0-.014.039-.014.039s-.026.027,0,.04.2.026.225.026-.013.04,0,.04,0,.026-.013.039V11.9l-.014.027c0,.013.014.04,0,.04s-.211-.027-.237-.027c0,0-.014.04,0,.04s.224.026.224.026v.079c0,.014.013.027-.013.04s.026.026,0,.026-.2-.013-.225-.013.027.026-.013.026-.184-.013-.224-.013c-.013,0-.013.027-.013.04s.211.013.237.013a1.685,1.685,0,0,0,.238.027c.026.013-.013.026-.013.039s0,.027,0,.04v.026c-.013.013,0,.027-.013.04s.026.039,0,.039l-.225-.013a.05.05,0,0,1-.013.027c0,.013-.013.026,0,.039a1.674,1.674,0,0,1,.238.026c.013,0,0,.027,0,.027s-.014.026,0,.04l-.238-.014c-.013,0,0,.027,0,.027s.224.026.238.026,0,.027,0,.027v.039l-.238-.013c-.026,0,0,.026,0,.026s.224.027.238.027v.026c-.027,0-.238-.013-.238-.013s0,.026,0,.04v.171c0,.013-.013.027,0,.04s-.04.026-.013.04.211.013.237.013,0,.039,0,.039v.027s.027.039,0,.039-.237-.013-.237-.013,0,.026,0,.04v.462c0,.013-.027.026-.013.039s.211.014.237.014V13.7l-.237-.013V13.8c.013.014,0,.014,0,.027s-.027.039,0,.039l.237.014v.105l-.013.04c0,.013.013.026,0,.039l-.224-.013c-.04,0,.013.027,0,.027s0,.026,0,.039v.04a.046.046,0,0,1-.014.039v.172c.014.013-.026.027,0,.04a1.543,1.543,0,0,1,.238.013c.013,0,0,.026,0,.026s.013.04,0,.04-.2-.013-.238-.013c-.013,0,0,.039,0,.039v.04s-.026.026,0,.026c0,0,.212.014.238.014v.039l-.238-.013c.014.013,0,.026,0,.04s-.026.026,0,.039h.225c.026,0,0,.04,0,.04v.066c0,.013.026.026,0,.039l-.225-.013a.03.03,0,0,0-.013.04c0,.013.013.026,0,.039s-.013.027,0,.04h.238c.013,0,.013.04,0,.04s-.2-.014-.238-.014c-.013,0,0,.04,0,.04s-.013.026,0,.04h.238c0,.013.013.039,0,.039s-.2-.013-.238-.013c-.013.013,0,.039,0,.039v.04c0,.013-.026.027,0,.04h.225c.026,0,0,.039,0,.039v.027h-.225c-.026,0,.013.026,0,.039s-.013.027,0,.027-.026.039,0,.039l.225.014s.026.026,0,.026h-.225c-.026,0,0,.04,0,.04a.045.045,0,0,0-.013.026c.026,0,.211.013.238.013s0,.027,0,.027.013.039,0,.039h-.238s-.013.027,0,.027.2.013.238.013,0,.039,0,.039v.172s.013.04,0,.04-.225-.014-.238-.014,0,.027,0,.04-.026.04,0,.04h.224v.026s.027-.026.04,0v.238c0,.026.026-.014.026,0s.027,0,.04,0h.211l-.317.33v-.159s.014-.039,0-.039H-41.2c-.013-.013,0-.04,0-.04s-.027-.026,0-.04h.237v-.026s.014-.04,0-.04h-.145v.014h-.039a.019.019,0,0,1-.027,0c-.013-.014-.039.026-.039,0v-.238s-.027-.026-.04,0v.238s-.026.013-.026,0v-.238h-.146v.238c0,.013-.039,0-.039,0v-.238c0-.026-.027,0-.027,0s-.026,0-.039,0h-.106v.224c0,.04-.026,0-.04,0-.013.027-.026,0-.026,0h-.079c-.013,0-.027.027-.027,0-.013,0-.039.04-.039,0v-.224s-.04-.026-.04,0v.224c0,.027-.026,0-.039,0h-.027c-.013.014-.026,0-.039,0h-.278c-.013,0-.026.014-.039,0s-.027.027-.04,0V15.93s-.026-.013-.026,0v.237c-.013.027-.027,0-.04,0s-.026-.013-.039,0a.018.018,0,0,1-.027,0h-.1V15.93c-.014-.013-.04,0-.04,0v.237c0,.027-.04,0-.04,0h-.422s-.026.014-.04,0V15.93s-.026-.013-.026,0v.237H-43.3s-.04.014-.04,0V15.93s-.026-.013-.026,0v.237c-.014,0-.027-.013-.04-.013h-.634v.792c0,.014.027.04,0,.04h-.237s-.013.04,0,.04h.237v.105c0,.013.014.026,0,.04V17.2c0,.013.027.027,0,.04h-.237c-.013,0,0,.039,0,.039V17.3c0,.013-.013.026,0,.039h.237c.027,0-.013.027,0,.04v.106c0,.013-.013.013,0,.026s.014.04,0,.04h-.237s-.013.039,0,.039h.237c.014,0,0,.027,0,.027s-.026.026,0,.039h.225c.04.013-.026.027,0,.04h-.225c-.026,0,0,.026,0,.026v.04c-.013.013,0,.026,0,.039v.106h-.237c-.027,0,0,.026,0,.026s-.027.04,0,.04h.237s.014.04,0,.04h-.237c-.027,0,0,.026,0,.039v.027s-.027.026,0,.039h.224c.04,0,0,.027,0,.04.027,0,0,.013,0,.026V18.4c0,.014.013.027,0,.04v.04s.027.026,0,.026.027.04,0,.04h-.224v.066c0,.013-.013.026,0,.039h.224c.013,0,0,.04,0,.04h-.224c-.027,0,0,.026,0,.026s-.027.04,0,.04h.224c.027.013,0,.026,0,.039v.066c0,.014.027.027,0,.04h-.224c-.027,0-.013.04-.013.04h.237c.027,0-.013.026,0,.026s0,.026,0,.04v.039h-.237c-.014,0,0,.027,0,.027s-.014.039,0,.039h.237v.462h-.237c-.014,0,0,.027,0,.027s.013.026,0,.039,0,.027,0,.04v.172s-.027.039,0,.039h.237a.03.03,0,0,1-.013.04h-.224c-.027,0,0,.026,0,.026h.224c.026,0,0,.04,0,.04v.039c.013.014,0,.014,0,.027V20.1c0,.014.013.027,0,.04s.04.026,0,.026h-.224c-.027.014,0,.04,0,.04s-.027.026,0,.04h.224c.026,0,0,.026,0,.026s0,.027,0,.04v.462s.026.026,0,.039h-.238c-.013,0,0,.027,0,.027h.238c.013,0,0,.039,0,.039v.04s.026.026,0,.026h-.238c-.013.014,0,.04,0,.04h.238c.013,0,0,.039,0,.039v.423h-.238c-.013,0,0,.039,0,.039a.019.019,0,0,0,0,.027c0,.013-.026.026,0,.04h.238c.013,0,0,.039,0,.039V21.7l-.013.026V21.8s.026.027,0,.027h-.225c-.026.013,0,.039,0,.039s-.026.027,0,.04h.225c.026,0,0,.026,0,.026s0,.027,0,.04v.172c0,.013.013.026,0,.039a.046.046,0,0,1,.013.027l.621.62v.251s.026.013.039,0v-.238c0-.013.026,0,.026,0h.106v.238h.04v-.238h.1s.04-.013.04,0v.238h.026s.04.026.04,0v-.238c.013-.013.026,0,.04,0s.026-.013.039,0v.238s.027.026.027,0v-.238c0-.013.039,0,.039,0s.027-.013.04,0v.238c0,.013.026,0,.026,0h.04s.026.026.039,0v-.238c0-.013.027,0,.027,0h.079s.026-.013.026,0v.238c.014.026.04-.013.04,0s.027,0,.04,0h.1s.027.026.027,0V22.86c.013-.013.039-.026.039,0v.225c0,.026.04,0,.04,0V22.86c0-.026.026,0,.026,0h.04c.013-.013.026,0,.04,0h.277v.225c.013.026.039,0,.039,0s.027.026.04,0V22.86c0-.026.026,0,.026,0s.027,0,.04,0h.277c.013.014.04-.026.04,0V23.1c0,.013.039,0,.039,0V22.86c0-.013.027,0,.027,0s.026.014.039,0,.027,0,.04,0h.066V23.1c0,.013.04,0,.04,0h.039c0-.013.027.026.027,0V22.86c0-.013.039,0,.039,0h.053v-.039c0-.013.026-.027,0-.04,0,0,.04-.026,0-.039h-.224c-.014-.014,0-.014,0-.027s-.027-.026,0-.039h.224c.026,0,0-.04,0-.04h-.224c-.014,0,0-.026,0-.026h.224c.026-.014,0-.04,0-.04a.049.049,0,0,0,.013-.04v-.066l-.211-.211h-.026a.039.039,0,0,0-.014-.026h.014l.026.026h.211c.013,0-.013.027,0,.04v.171l.5.5v-.092a.017.017,0,0,1,.026,0h.106V23.1l-.132-.132V23.1c-.013.026-.027-.013-.04,0s-.026,0-.039,0h-.027v.238h-.039V23.1c0-.026-.027.04-.04,0V22.86c0-.026-.027.014-.027,0h-.079s-.026-.013-.026,0V23.1c-.013.026-.04,0-.04,0h-.039s-.027.026-.027,0V22.86c-.013-.026-.026.014-.039,0s-.027,0-.04,0h-.013v.278h-.238c-.026,0,.014.026,0,.039v.066s-.013.027,0,.04h.238c.026,0,0,.026,0,.026v.079s.013.027,0,.027.026.039,0,.039h-.238c-.013.014,0,.027,0,.04V23.6s-.013.026,0,.026h.238c.026.013,0,.026,0,.04s-.013.026,0,.039a.019.019,0,0,1,0,.027v.752l-.013.027v.039h.237c.014,0,0,.027,0,.04h-.237c-.014,0,0,.026,0,.026v.713h-.238c-.013,0,0,.04,0,.04h.238c.013,0,0,.026,0,.026h-.238c-.013.013,0,.04,0,.04h.238c.013,0,0,.039,0,.039s.013.027,0,.027h-.238s-.013.039,0,.039h.238s.013.04,0,.04h-.238c-.026,0,0,.026,0,.026s-.013.027,0,.04h.238c.039.013-.04.026,0,.039h.224c.04,0-.026.027,0,.027h-.224c-.027.013,0,.039,0,.039v.04c-.014.013,0,.026,0,.04V25.9c-.014,0,.026.026,0,.039h-.238c-.026,0,0,.027,0,.027h.238c.013,0,0,.039,0,.039s.013.027,0,.04h-.238v.026s-.026.04,0,.04h.238s.013.026,0,.039h-.238c-.026,0,0,.027,0,.027s-.013.026,0,.04h.238a.125.125,0,0,1-.014.039v.026c.014.014,0,.027,0,.04v.106c.014.013,0,.026,0,.039v.251a.018.018,0,0,0,0,.026c.014.014-.026.04,0,.04h.238s.013.027,0,.04h-.238v.066c0,.013.014.026,0,.039v.027c0,.013.027.026,0,.039h-.237c-.013,0,0,.04,0,.04h.237c.014,0,0,.026,0,.026v.04h-.237c-.027,0,.013.026,0,.04s0,.026,0,.026v.106c0,.013-.013.026,0,.039h.237c.014,0,0,.04,0,.04v.026c.014.013,0,.027,0,.04v.039c0,.014-.013.027,0,.04s-.026.026,0,.026h.225c.026.014,0,.027,0,.04v.04s.026.026,0,.026h-.225c-.026.013,0,.026,0,.039s0,.027,0,.04v.106c-.013.013,0,.013,0,.026v.04l-.013.145v.317h.238c.013,0,0,.039,0,.039H-41.1c-.026,0,.013.027,0,.027s.04.039,0,.039h-.224s-.027.027,0,.04h.224v.132c.013.013,0,.027,0,.04s-.013.026,0,.039-.026.027,0,.027h.238c.013.013,0,.039,0,.039s.013.027,0,.04H-41.1c-.026,0-.013.013,0,.026h-.237s-.014.04,0,.04h.237c.04.013-.039.026,0,.039h.238c.013,0,0,.027,0,.027H-41.1c-.026.013.013.04,0,.04s0,.026,0,.039v.026h.225c.026.014,0,.04,0,.04H-41.1c-.013,0,0,.04,0,.04v.171c0,.014-.013.027,0,.04v.039a.019.019,0,0,0,0,.027c0,.013-.039.026,0,.04h.225c.026,0,0,.039,0,.039H-41.1c-.013,0,0,.027,0,.027h.225c.026,0,0,.039,0,.039H-41.1c-.039,0,.013.027,0,.04s0,.026,0,.026v.106c0,.013-.026.026,0,.039h.225c.026,0,0,.027,0,.04H-41.1c-.026,0,0,.026,0,.026s-.026.04,0,.04h.225c.026,0,0,.04,0,.04v.026c0,.013.013.026,0,.04s.026.026,0,.039h-.238a.019.019,0,0,0,0,.027v.118a.019.019,0,0,1,0,.027v.039c0,.014-.013.027,0,.04h.238c.013,0,0,.026,0,.026v.04s.026.026,0,.04h-.238c-.026,0,0,.026,0,.026s.026.04,0,.04h-.238v.066h.238c.013.013,0,.039,0,.039s-.013.027,0,.04a.018.018,0,0,1,0,.026v.212c.013.013,0,.026,0,.039s-.026.026,0,.04h.225c.026,0,0,.026,0,.026s.026.04,0,.04h-.225c-.026,0,0,.026,0,.039s-.013.027,0,.04h.225s.026.026,0,.026h-.225v.04s-.026.026,0,.04h.225v.026c0,.013.026.026,0,.039s.026.027,0,.04h-.225a.019.019,0,0,0,0,.027s-.026.039,0,.039h.225c.013.013,0,.026,0,.04s.013.026,0,.026.026.04,0,.04h-.225v.066c0,.013-.013.026,0,.039s-.039.027,0,.04h.225c.026,0,0,.026,0,.026v.04c0,.013.026.026,0,.039h-.225c-.026,0,0,.027,0,.027a.13.13,0,0,0-.013.04h.238c.026.013,0,.026,0,.039V31.8c-.014.013.026.039,0,.039h-.238c-.026.013.026.026,0,.04s0,.026,0,.039.026.027,0,.027h-.225c-.026.013,0,.026,0,.039h.225v.106c.013.013,0,.026,0,.04s-.013.026,0,.026-.026.04,0,.04h.238s.013.026,0,.039h-.238c-.013,0,0,.027,0,.027h.238c.026.013-.014.039,0,.039s0,.027,0,.04V32.4c0,.013.013.026,0,.039h-.238c-.013,0,0,.027,0,.027s.013.026,0,.039,0,.027,0,.04v.277c0,.014-.013.027,0,.04h.224c.027,0,0,.039,0,.039a.018.018,0,0,1,0,.027c0,.013.027.026,0,.039h-.224c-.026,0,0,.04,0,.04v.066c-.013.013,0,.026,0,.04s.013.026,0,.026h-.238s-.026.04,0,.04h.238c.013.013,0,.026,0,.039V33.4l-.013.04v.131c.013.014,0,.027,0,.04s-.013.04,0,.04h.237v.039s.014.027,0,.027h-.237c-.013,0,0,.039,0,.039s.013.027,0,.04v.673s-.027.027,0,.027h.237l-.013.039c0,.013.027.027,0,.04h-.224c-.013,0,0,.026,0,.026v.04s-.027.026,0,.039h.224c.027,0,0,.027,0,.027v.039c0,.014.013.027,0,.04s.027.026,0,.026h-.224c-.027.014,0,.04,0,.04s0,.026,0,.04v.066c-.013.013,0,.026,0,.039v.027c0,.013-.013.026,0,.039s-.027.04,0,.04h.224s.027.026,0,.026h-.224c-.027.013,0,.027,0,.04V35.2a.044.044,0,0,0-.013.027v.079c.013.013,0,.026,0,.04s-.014.026,0,.026h.237v.079a.019.019,0,0,1,0,.027h-.237c-.014,0,0,.039,0,.039v.04h.237c.027,0-.013.026,0,.026s0,.027,0,.04v.251s.013.026,0,.026h-.237c-.027.013,0,.026,0,.04v.066c0,.013-.027.039,0,.039h.237c.027,0-.013.027,0,.04a.018.018,0,0,1,0,.026v.079c-.013.014,0,.027,0,.04s.013.026,0,.026h-.237c-.027,0,0,.04,0,.04s.013.026,0,.04h.224c.026,0,0,.026,0,.026h-.224c-.027,0,0,.04,0,.04v.039h.224c.026,0,0,.027,0,.027h-.224c-.027,0,0,.039,0,.039v.106c0,.013-.027.026,0,.039h.224c.026,0,0,.027,0,.027v.04h-.224c-.04,0,0,.026,0,.039-.027,0-.014.027,0,.027s-.027.039,0,.039h.224c0,.013.013.027,0,.04s.026.026,0,.026h-.224c-.027.013,0,.026,0,.04V37h.224c.026.013-.013.039,0,.039s0,.027,0,.04.026.026,0,.04h-.238l.014.026v.04c-.014.013-.027.026-.014.039h.238c.013,0,0,.026,0,.026v.04h-.238c-.026,0,.014.027,0,.04s0,.026,0,.026-.013.04,0,.04h.238c.013.013,0,.026,0,.039v.132s.013.04,0,.04h-.238c-.013.013,0,.026,0,.04s-.026.026,0,.026h.238V37.7l.119.608.409-.08h.013s.04-.026.04,0v.238c.013.013.026,0,.039,0h.08s.039.013.039,0-.013-.224-.013-.238.04,0,.04,0h.079a1.543,1.543,0,0,0,.013.238h.026c.014,0,.04.013.04,0v-.238c0-.026.026,0,.026,0h.04c.013,0,.027-.013.04,0s.026-.026.039,0,.013.2.013.238c0,.013.04,0,.04,0s-.013-.224-.013-.238.039,0,.039,0,.027.014.04,0h.291s.026.225.026.238.039,0,.039,0-.026-.224-.026-.238.04,0,.04,0h.3c.013,0,.027-.013.04,0s.026-.026.04,0,.026.2.026.225.04,0,.04,0a1.679,1.679,0,0,0-.04-.225c0-.026.04.014.04,0s.026,0,.039,0h.079s.04.212.04.225.039.013.039,0l-.039-.225h.039s.027-.013.027,0a1.882,1.882,0,0,1,.053.225s.039.026.039,0a1.381,1.381,0,0,1-.052-.225c.013-.026.026,0,.039,0h.079s.027-.026.04,0,.04.2.04.225.039,0,.039,0-.039-.211-.039-.225h.488c.013,0,.026-.026.04,0,0,0,.053.2.053.225.013,0,.039,0,.039-.013l-.053-.212.027-.013h.237a.019.019,0,0,1,.027,0c.013.013.026-.026.039,0s.066.2.079.225.04,0,.04,0,.04.013.04,0a2.231,2.231,0,0,1-.08-.225c0-.013.027,0,.04,0s.026-.026.04,0,.079.225.079.225h.04a.028.028,0,0,0,.039-.013.79.79,0,0,1-.079-.212h.026c.014,0,.04.013.04,0s.026,0,.04,0h.184l.04-.013h.04c.013.013.026,0,.039,0s.027-.013.04,0,.092.211.092.211.04.027.04,0a1.385,1.385,0,0,1-.093-.211c0-.013.027,0,.04,0h.066s.092.2.106.211.026,0,.026,0-.079-.2-.093-.211.04,0,.04,0h.04s.026-.026.039,0,.08.185.093.211.039,0,.039,0-.092-.2-.092-.211.026,0,.026,0h.119l.04-.013H-36c.013,0,.013-.013.04,0s.013-.013.026,0,.026-.027.04,0a1.587,1.587,0,0,1,.118.2c.014,0,.04.013.04,0s-.106-.172-.119-.211c.013-.014.04.026.04,0s.053.039.039,0c-.013-.014-.1-.172-.118-.2a.131.131,0,0,0,.039.013,1.215,1.215,0,0,0,.119.185c.013.026.026,0,.04,0a.018.018,0,0,0,.026,0c.013,0,.026-.014.04,0s.026,0,.039,0,.014-.014.04,0,.013-.027.039,0c0,.013.119.2.119.2s.027-.014.04-.014h.079c.013,0,.027.014.04,0s.039.027.039,0-.119-.184-.132-.2.027,0,.04,0h.185s.132.172.132.185.039,0,.039,0-.119-.171-.132-.185h.04s.013-.026.039,0,.119.172.132.185.027,0,.04,0h.04s.039.013.039-.013-.132-.172-.145-.185.026,0,.04,0h.1c.013,0,.027-.013.04,0s.026-.026.04,0,.145.172.145.172c.026.013.026,0,.039,0h.146a2.345,2.345,0,0,0-.146-.185c0-.013.027,0,.04,0h.039a2.3,2.3,0,0,1,.146.185c.026.013.026-.013.039-.013s.027,0,.04,0h.079c.013,0,.04.013.04,0h.026a2.131,2.131,0,0,0-.145-.185h.145s.145.158.159.171.039,0,.039,0h.04c-.014-.013-.159-.171-.159-.171h.04s.013-.026.04,0c0,0,.132.145.145.158s.039,0,.039,0h.159c.013,0,.039,0,.039-.013l-.171-.158c-.013-.027.039,0,.039,0h.066v-.225l.172.159v-.027s.013-.026,0-.039a1.67,1.67,0,0,0-.172-.159c-.013-.026,0-.026,0-.039l.014-.04v-.026c-.014-.027,0-.027,0-.04v-.5l.013-.039V36.88l.171.158c.014,0,.014-.039,0-.039l-.171-.159a.018.018,0,0,1,0-.026v-.145c.013,0,.158.132.185.145v-.066a1.779,1.779,0,0,1-.172-.159c-.013-.013,0-.039,0-.039v-.026c-.013-.027,0-.027,0-.04v-.106a1.872,1.872,0,0,0,.172.146c.026.013,0-.027,0-.027s.026-.026.013-.039a2.035,2.035,0,0,1-.185-.159.018.018,0,0,1,0-.026v-.185c0-.013.013-.026,0-.04a.045.045,0,0,1,.013-.026c0-.013.013-.027,0-.04s-.171-.132-.185-.145V35.8a2.131,2.131,0,0,1,.185.145c-.013-.014,0-.027,0-.04a.018.018,0,0,0,0-.026c-.013-.014-.185-.146-.185-.146v-.079c.014.013.185.146.185.146v-.067c0-.013.013-.013,0-.039,0,0-.171-.132-.185-.145s0-.04,0-.04v-.026s.172.132.185.145,0-.04,0-.04v-.039c.013,0,0-.027,0-.04l.013-.026v-.515a.019.019,0,0,0,0-.027c0-.013.027-.013.013-.039a1.906,1.906,0,0,1-.2-.145v-.014s.184.119.2.119v-.026c0-.013-.013-.04,0-.04v-.435l.014-.04v-.04s-.027-.039,0-.026.158.106.185.132c.013,0,0-.04,0-.04s-.172-.118-.185-.132,0-.039,0-.039v-.291s-.014-.026,0-.026a1.484,1.484,0,0,1,.2.119s.013-.027,0-.04-.2-.119-.2-.119v-.039l.013-.066v-.119s-.027-.04,0-.027.172.106.2.119v-.039s-.185-.119-.2-.119,0-.04,0-.04v-.251l.2.119c.026.013,0-.039,0-.039s.026-.014.013-.027-.171-.105-.211-.118a.029.029,0,0,1,.013-.04v-.079s-.013-.027,0-.027.185.106.2.119,0-.04,0-.04v-.039s-.185-.119-.2-.119,0-.04,0-.04.185.119.2.119.013-.026,0-.026-.2-.119-.2-.119v-.039a1.518,1.518,0,0,1,.2.118c.013,0,0-.039,0-.039s-.185-.106-.2-.119,0-.04,0-.04v-.145l.013-.026c0-.014-.013-.04,0-.04s-.026-.04,0-.04.172.106.2.119,0-.039,0-.039.027-.027,0-.04l-.2-.106c-.026-.013,0-.039,0-.039V32.18s.2.106.212.119,0-.039,0-.039.013-.014,0-.04c0,0-.2-.106-.212-.106s0-.039,0-.039V31.93l.014-.04s-.014-.027,0-.027.184.093.2.106.013-.039,0-.039-.2-.106-.2-.106,0-.026,0-.04v-.435l.013-.04v-.026l.2.092c.026.013,0-.026,0-.026s.026-.027.013-.04l-.211-.106c-.027-.013,0-.026,0-.039s0-.013,0-.026v-.185c0-.014-.013-.04,0-.04s.185.079.211.092,0-.026,0-.026,0-.026,0-.04.026-.026,0-.039-.211-.092-.211-.092v-.146l.013-.039v-.251s-.026-.04,0-.04.211.093.211.093.027-.027,0-.04-.185-.079-.211-.092,0-.027,0-.027v-.079c0-.013-.013-.026,0-.04s.2.08.211.093.013-.04.013-.04-.013-.026,0-.039a.018.018,0,0,0,0-.027c-.026-.013-.184-.079-.224-.092-.013-.013,0-.04,0-.04v-.026a1.536,1.536,0,0,1,.224.079c.014,0,0-.04,0-.04s.014-.026,0-.026-.211-.092-.211-.092c-.026-.014,0-.027,0-.04v-.066c-.013-.013,0-.026,0-.04v-.29c.013-.013,0-.026,0-.04s-.013-.039,0-.039a2.376,2.376,0,0,0,.225.079.018.018,0,0,0,0-.026,1.086,1.086,0,0,0-.225-.08c-.013-.013,0-.039,0-.039s-.013-.04,0-.04.2.066.225.079,0-.039,0-.039.026-.027,0-.027-.212-.079-.212-.079c-.026-.026,0-.026,0-.039v-.08s-.026-.039,0-.026.185.066.212.066,0-.026,0-.026.026-.027,0-.04-.185-.066-.212-.079,0-.04,0-.04V28.92s-.026-.053,0-.04.225.066.225.066.013-.026,0-.026-.2-.066-.225-.079,0-.04,0-.04v-.106c.014-.013,0-.026,0-.039s-.013-.04,0-.04.225.079.225.079v-.039c0-.013.026-.027,0-.04,0,0-.2-.066-.225-.066s0-.039,0-.039.014-.014.014-.04,0-.013,0-.027v-.409s.211.066.224.066,0-.039,0-.039.026-.014,0-.027a1.128,1.128,0,0,0-.224-.066c-.04-.013.039-.026,0-.039s-.172-.053-.225-.066v-.04s-.013-.026,0-.026.211.052.225.052,0-.026,0-.026v-.04c.013-.013,0-.026,0-.039V27.6c.013-.014,0-.027.013-.04v-.29c0-.014-.013-.027,0-.04V27.2s-.013-.04,0-.04.224.053.224.053.027-.027,0-.04-.211-.053-.224-.053,0-.026,0-.039v-.027c0-.013.013-.026,0-.039s.026-.027,0-.04a1.309,1.309,0,0,1-.225-.053c-.026-.013,0-.026,0-.039s0-.013,0-.027-.013-.039,0-.039.225.053.225.053v-.08c0-.013.026-.013,0-.026,0-.013.039-.027,0-.04-.013-.013-.185-.039-.225-.053-.013-.013,0-.039,0-.039s-.013-.027,0-.027.2.04.238.04-.013-.026,0-.04v-.1l.224.053v-.04a1.065,1.065,0,0,1-.224-.053s.013-.026,0-.026a1.538,1.538,0,0,0-.238-.053c-.013-.013,0-.026.014-.04v-.026s.211.04.224.04-.013-.027,0-.04,0-.026,0-.026-.013-.027,0-.04v-.145s-.211-.04-.224-.04-.014-.039,0-.039.224.039.224.039,0-.026,0-.039v-.106c.013-.013,0-.026,0-.039v-.106l.013-.145a1.359,1.359,0,0,1,.225.039c.013,0,.013-.039,0-.039s-.2-.04-.225-.04l-.237-.039v-.106c.052.013.2.026.237.039s-.039-.039,0-.039-.039-.04,0-.04.2.027.225.04,0-.04,0-.04a1.639,1.639,0,0,1-.225-.039c-.026,0,0-.027,0-.027s.013-.026,0-.039,0-.027,0-.04v-.106c0-.013-.013-.026,0-.039s-.026-.027,0-.04c.027.013.2.027.238.04.013,0,0-.04,0-.04s.013-.026,0-.04-.2-.026-.238-.026.027-.026,0-.039-.2-.027-.224-.027-.013-.039,0-.039c.039,0,.185.026.224.026v-.29l.013-.146v-.369s-.013-.027,0-.027-.026-.039,0-.039.2.013.225.013,0-.027,0-.027,0-.026,0-.039.026-.026.013-.04-.211-.013-.238-.013,0-.039,0-.039v-.7l.014-.027v-.066c0,.014-.04,0-.04,0v-.237h-.013c.013-.079.039-.145.053-.145l.224.013v.039s.026.027,0,.027h-.224c-.027.013,0,.026,0,.039v.027h.066l.039.013h.423c0-.013.026.027.039,0v-.238c0-.013.027,0,.027,0s.039-.026.039,0V22.9c0,.013.04,0,.04,0v.238c0,.013.026,0,.026,0V22.9c0-.013.04,0,.04,0h.039c.014-.013.014,0,.027,0h.567c.014,0,.027-.013.04,0s.026-.026.04,0v.238c0,.026.026,0,.026,0V22.9c0-.013.04,0,.04,0s.026.013.039,0h.066l.04.013c.013-.013.013,0,.026,0h.357v-.237c0-.014.039,0,.039,0v.237c0,.027.027-.039.04,0v.225a.018.018,0,0,0,.026,0s.04.026.04,0v-.225h.106s.026.014.039,0v-.237h.172s.026-.014.039,0v.237c0,.027.027,0,.027,0h.079v-.237c0-.027.026.013.026,0s.027,0,.04,0,.04-.014.04,0v.237h.026c.013,0,.026.014.04,0s.026.027.039,0v-.224c0-.027.027,0,.027,0s.026,0,.039,0,.027-.027.04,0c0,0,.026-.04.039,0v.224c0,.027.027,0,.027,0h.039c.014,0,.027.014.04,0s.026.027.026,0v-.224c.014-.027.04,0,.04,0s.026,0,.04,0a.018.018,0,0,1,.026,0c.013,0,.027-.027.04,0v.224c0,.027.039,0,.039,0h.132c.013,0,.027.014.04,0v-.224c0-.027.026,0,.039,0s.027-.027.027,0v.238c.013.013.04,0,.04,0h.052l.225.1.488-.752c0-.014.013-.014,0-.027a1.9,1.9,0,0,1-.238-.026V22.2c.014,0,.238.027.238.027s.026-.04,0-.04-.224-.026-.224-.026-.014-.027,0-.04a1.319,1.319,0,0,0,.237.027c.013,0,0-.027,0-.027v-.04l.013-.039v-.066c0-.013.014-.026,0-.04a.045.045,0,0,1,.014-.026c0-.013.013-.026,0-.04s-.211-.026-.238-.026c0,0,0-.04.013-.04a1.4,1.4,0,0,0,.225.027l.013-.027v-.079s.026-.026,0-.026a1.317,1.317,0,0,0-.224-.027v-.039s-.014-.027,0-.04a1.656,1.656,0,0,0,.237.027c.026,0,0-.027,0-.027s-.013-.039.013-.039a1.327,1.327,0,0,1,.225.026l.013-.079c-.053,0-.185-.014-.238-.014-.013-.013,0-.039,0-.039a.05.05,0,0,0,.013-.04.018.018,0,0,1,0-.026v-.04a.046.046,0,0,0,.014-.039.018.018,0,0,1,0-.027v-.039c0-.013.026-.027.013-.04a1.493,1.493,0,0,1-.238-.026c-.026,0,.014-.027,0-.027S-29,21.118-29,21.1v-.04s-.014-.026,0-.026a1.661,1.661,0,0,1,.237.026c.027,0,0-.04,0-.04s.027-.026,0-.039-.224-.026-.224-.026-.013-.027,0-.027.237.027.237.027.014-.04,0-.04-.237-.027-.237-.027,0-.026.013-.026l.224.013c.027,0,0-.026,0-.026s-.013-.04.014-.04.2.027.224.027,0-.027,0-.04.04-.026.013-.04-.2-.013-.237-.013.052-.026.013-.039-.225-.027-.238-.027a.018.018,0,0,1,0-.026c0-.013-.013-.04.013-.04s-.026-.039,0-.039.185.026.238.026v-.066c-.026-.013.04-.026,0-.04-.013,0-.224-.026-.224-.026s-.014-.026,0-.026l.237.013v-.066l.013-.066c.053,0,.185.013.225.013s.013-.026.013-.026v-.04a1.053,1.053,0,0,1-.224-.026c-.04,0,.013-.027,0-.027s0-.026,0-.039.026-.027,0-.04-.185-.013-.225-.013v-.04s-.013-.039,0-.039.225.026.238.026,0-.026,0-.04v-.026l.013-.04V19.9l.026-.145v-.066l-.224-.026c-.013,0-.013-.04,0-.04s.224.027.224.027a.048.048,0,0,0,.014-.04.018.018,0,0,0,0-.026c-.014-.014.026-.027,0-.04s-.225-.026-.225-.026-.026-.027,0-.027.225.013.238.013,0-.026,0-.026-.013-.027,0-.04,0-.026,0-.039l.013-.027V19.3a.045.045,0,0,0,.013-.026s.026-.027,0-.04-.238-.026-.238-.026-.013-.027.014-.027.211.014.224.014.013-.027.013-.027v-.1l.013-.04v-.04l-.237-.013c-.013-.013.013-.039.013-.039s.211.026.224.026.014-.04.014-.04v-.066c0-.013.013-.026,0-.039s.013-.027.013-.04a.018.018,0,0,0,0-.026c-.013-.013.026-.027,0-.04s-.224-.026-.224-.026v-.027c0-.013-.014-.039,0-.039s.211.026.237.026,0-.039,0-.039,0-.027.013-.04a.018.018,0,0,0,0-.027c-.013-.013.027-.026,0-.039s-.224-.027-.224-.027-.013-.013,0-.026-.026-.04,0-.04.224.027.238.027,0-.027,0-.04v-.039l.013-.027c0-.013-.013-.026,0-.039s.026-.027,0-.04-.211-.013-.225-.013,0-.027,0-.04v-.039s.225.026.238.026-.013-.026,0-.04v-.026l.013-.04v-.039s.027-.027,0-.027-.224-.026-.224-.026,0-.026,0-.04-.013-.026,0-.026a1.646,1.646,0,0,1,.237.026c.014-.013,0-.039,0-.039v-.04l.014-.026v-.04c0-.013.013-.026,0-.039s0-.027.013-.027.013-.026,0-.039-.211-.027-.238-.027a.131.131,0,0,1,.013-.039s.212.026.225.026.013-.026.013-.026-.013-.027,0-.04,0-.026,0-.04v-.026l.013-.04v-.105l.027-.145v-.067l.013-.039v-.066l.013-.145.013-.106.092-.818-.844-.013h-.172v.237c0,.013-.04,0-.04,0H-29.3V15.97c-.013-.027-.039.013-.039,0s-.027,0-.04,0h-.172c-.013,0-.026.013-.039,0s-.027.026-.04,0v-.238s-.026-.013-.026,0v.238c-.013.026-.027-.014-.04,0s-.026,0-.04,0h-.422s-.026.013-.026,0v-.238s-.04-.013-.04,0v.238c-.013.013-.026,0-.04,0h-.026a.048.048,0,0,1-.04-.014c-.013,0-.026-.013-.039,0s-.027-.026-.027,0v.238c-.013.013-.026,0-.039,0s-.027.013-.04,0-.026.026-.039,0v-.238h-.027s-.039-.013-.039,0v.238c-.014.013-.027,0-.04,0h-.106v-.238c0-.026-.026.014-.026,0s-.026,0-.04,0h-.039v.238c0,.013-.027,0-.027,0s-.039.013-.039,0v-.238s-.027-.026-.04,0v.238c0,.026-.026-.013-.026,0s-.027,0-.04,0h-.251v-.238c0-.013-.026,0-.039,0v.238c0,.013-.027,0-.027,0s-.026,0-.039,0h-.066a.051.051,0,0,0-.04-.013c-.013,0-.026.026-.04,0v-.225c0-.026-.026,0-.026,0h-.105c-.014,0-.027-.013-.04,0s-.026-.026-.04,0v.225c0,.026-.026,0-.026,0h-.04s-.026.026-.039,0v-.225c0-.026-.027,0-.027,0s-.039-.026-.039,0v.225c-.014.026-.027,0-.04,0h-.026v-.225c-.013-.026-.04-.013-.04,0v.225c0,.026-.039,0-.039,0s-.027.026-.027,0v-.225c-.013-.026-.026,0-.04,0h-.039v.225c0,.026-.04,0-.04,0H-32.2c-.013.013-.027,0-.04,0s-.026.013-.039,0-.027.026-.027,0v-.238h-.1c-.014,0-.027.013-.04,0h-.04s-.026.027-.026,0c-.013,0-.04.027-.04,0v-.224h-.065c-.014.026-.04-.04-.04,0v.224c0,.04-.027-.04-.04,0v.238h-.132v-.238c-.013-.026-.039.013-.039,0s-.027,0-.04,0h-.066c-.013,0-.026-.026-.04,0v.238c0,.013-.039,0-.039,0h-.027c-.013,0-.026.013-.039,0v-.238c0-.013-.04,0-.04,0h-.026v.04h.026c.027,0,0,.026,0,.026s.027.04,0,.04h-.026v.132c-.013.026-.027-.014-.04,0s-.026,0-.039,0h-.027s-.039.013-.039,0v-.132h-.053c-.027,0,0,.026,0,.026l-.013.04v.066c0,.013-.014.039,0,.039h.237c.013,0,0,.04,0,.04H-33.4c-.027,0,.013.026,0,.026s0,.027,0,.04v.039s-.014.027,0,.027h.237c.027.013-.013.04,0,.04s0,.026,0,.039V16.5h-.224l.145.146h.079c.027.013-.013.026,0,.039a.019.019,0,0,1,0,.027v.013l-.079-.079H-33.4c-.014,0,0-.04,0-.04v-.026c0-.013-.014-.027,0-.04s-.027-.026,0-.04l-.3-.316c.013,0,.013,0,.013-.014v-.224c.013-.026.027,0,.04,0h.039v.224h.027v-.224c.013-.026.026,0,.039,0h.04v.224c0,.027.026.014.026,0v-.224c.013-.026.04,0,.04,0h.053v-.106c0-.013-.027-.026,0-.039,0,0-.027-.027,0-.04l.224.013s.027-.039,0-.039h-.224c-.027-.013,0-.027,0-.04s-.027-.026,0-.039l.224.013v-.04c0-.013.027-.026.013-.039h-.237c-.027,0,0-.04,0-.04v-.026c0-.014-.027-.027,0-.04h.237c.014,0,0-.026,0-.026v-.04h-.237c-.013,0,0-.04,0-.04h.237c.014,0,0-.026,0-.026v-.04c0-.013.014-.026,0-.039s.027-.027,0-.027h-.237c-.013-.013,0-.039,0-.039v-.04s-.013-.026,0-.026h.237c.027,0-.013-.027,0-.04s0-.026,0-.039v-.132s.027-.04,0-.04h-.237c-.013-.013,0-.026,0-.04v-.026l.013-.04c0-.013-.026-.026,0-.039,0,0,.2.013.224.013s0-.04,0-.04v-.039s.027-.027,0-.027-.211-.013-.224-.013,0-.026,0-.026v-.04h.224c.027,0,0-.026,0-.026s.027-.04,0-.04h-.224c-.026-.013,0-.04,0-.04h.224c.027,0,0-.026,0-.026s.027-.039,0-.039h-.224c0-.014-.026-.04,0-.04h.238v-.026s-.027-.04,0-.04h.224c-.026,0,.04-.013,0-.026s-.2-.014-.224-.014.013-.026,0-.026-.212-.013-.238-.013,0-.027,0-.027h.238c-.014-.026-.014-.026,0-.039v-.066h-.238c-.013-.014,0-.04,0-.04v-.066s-.013-.039,0-.039h.238l.224.013v-.04s.026-.026,0-.026c0,0-.2-.014-.224-.014s0-.039,0-.039a.019.019,0,0,0,0-.027c-.014-.013.026-.026,0-.039h-.238c-.013-.013,0-.027,0-.04v-.039c0-.013.013-.013,0-.027V13.62s-.013-.027,0-.04.238.013.238.013,0-.026,0-.039v-.106a.018.018,0,0,0,0-.026l.013-.119V13.21l.013-.013c-.013-.013.026-.013,0-.013a1.826,1.826,0,0,0-.224-.053c-.027-.013,0-.026,0-.026l.013-.013s.211.052.224.052v-.026c-.013,0-.224-.066-.224-.066l.013-.026c0-.013,0-.013.013-.013s-.026-.027,0-.014.066.027.132.04a.779.779,0,0,1-.119-.066c-.026-.013,0-.013,0-.013a.014.014,0,0,0,.014-.014v-.013a.013.013,0,0,1,.013-.013c.013,0-.013-.026.013-.013a.058.058,0,0,0,.04.013l-.027-.026c-.026-.027,0-.014,0-.014l.013-.013s.172.132.185.146V13h.013v-.013l-.158-.158s-.013-.027.013-.014a1.1,1.1,0,0,1,.145.172H-33l.013-.013a.013.013,0,0,0,.013-.013c0-.014-.132-.2-.132-.2h.026l.027-.027h.013a.013.013,0,0,0,.013-.013A.046.046,0,0,1-33,12.709h.013c.013.013.079.185.092.211h.013l.014-.013h.026a.013.013,0,0,0,.013-.013s.027.026.027,0a1.926,1.926,0,0,1-.066-.225c0-.026.026,0,.026,0s0-.013.013-.013h.027s.013-.026.026,0c0,0,.04.2.04.224h.013s.026.014.026,0a1.289,1.289,0,0,0-.039-.237c.013-.027.026,0,.026,0h.026c.014,0,.014,0,.027-.013h.026a.018.018,0,0,1,.027,0c0,.013.013.211.013.237h.013V12.63c0-.027.026.013.026,0h.066s.027-.014.027,0,.013.237.013.237.026.013.026,0V12.63h.106s.04-.014.04,0v.237s.026.013.039,0a1.372,1.372,0,0,0-.013-.237c.013-.014.04,0,.04,0s.026.013.039,0h.04a.017.017,0,0,1,.026,0c.013.013.04-.027.04,0v.237s.026.027.04,0V12.63c0-.014.026,0,.026,0s.026.013.04,0h.039s.026-.014.026,0v.237c.014.013.04,0,.04,0h.04V12.63c0-.027.026.013.026,0s.026,0,.04,0h.039s.027-.014.027.013v.224s.039.013.039,0v-.224h.106c.013,0,.026-.013.039,0h.027c.013,0,.026-.013.039,0s.027-.027.04,0v.224c0,.027.027,0,.027,0s.039.027.039,0v-.224c.013-.027.027,0,.04,0h.066c.013,0,.026-.027.039,0v.224c0,.027.04,0,.04,0s.026.027.026,0v-.224c.014-.027.027,0,.04,0h.04s.026-.027.026,0v.237c.013,0,.04.014.04,0v-.237c0-.027.039,0,.039,0s.027-.027.027,0v.237s.039.014.039,0v-.237h.277v.237c.014.027.04-.013.04,0s.026,0,.04,0h.026v-.237c.013-.013.04,0,.04,0s.026-.013.039,0v.237h.027c.013,0,.039.027.039,0v-.237c0-.013.04,0,.04,0h.026c.013,0,.027-.013.04,0s.026-.027.039,0v.237s.027.014.027,0v-.237c.013-.013.039,0,.039,0h.106c.013,0,.027-.013.04,0v.237c0,.027.039,0,.039,0v-.224c0-.04.027,0,.027-.013s.026,0,.039,0h.04l.026.013h.079a.019.019,0,0,1,.027,0h.04c.013,0,.026-.026.039,0v.224s.026.014.026,0v-.224h.106c.013,0,.026-.013.04,0s.026,0,.039,0,.027-.026.027,0v.224c.013.027.039,0,.039,0s.04.027.04,0v-.224s.026-.013.026,0v.224c.013,0,.04.027.04,0v-.224c.013-.026.026,0,.039,0h.04l.594.026.026-.646v-.317h.238c.027,0-.013-.027,0-.027s0-.026,0-.039v-.08s.027-.026,0-.026h-.224c-.027,0,0-.04,0-.04v-.066c0-.013-.027-.026,0-.039h.224c.027,0,0-.04,0-.04s.027-.026,0-.026h-.224c-.027-.013,0-.026,0-.04v-.145c0-.013-.014-.013,0-.026v-.04c0-.013-.014-.026,0-.039s-.027-.027,0-.027h.224c.027-.013,0-.04,0-.04h.238C-28.054,10.979-28.054,10.953-28.067,10.94Zm-12.37,5h.027l-.027.027Zm-.1,0h.039s.027-.013.027,0v.066l-.066.066Zm-.66.766V16.6c.013-.013,0-.026,0-.039s-.013-.04,0-.04h.224l-.224.211Zm-1.9.211h.066l.171-.172v.093c-.013.013,0,.026-.013.039s.027.04,0,.04h-.158l-.027.026H-43.1C-43.13,16.946-43.1,16.92-43.1,16.92Zm.224.317c.027,0,0,.039,0,.039Zm-.039-.132-.014-.013h.053V17.1C-42.892,17.092-42.9,17.1-42.918,17.1Zm-.383.079v-.092h.039v.052l.066-.052v.237c0,.027-.039,0-.039,0h-.027v-.185l-.039.04v.145c-.013.013-.027,0-.04,0h-.1Zm9.953,5.94c0,.027-.026,0-.026,0s.013-.052.026-.118Zm4.066-15.881a.018.018,0,0,0-.026,0h-.37V7.4H-29.9c-.027,0,0,.04,0,.04s-.013.026,0,.039h.224c.027,0,0,.027,0,.027s0,.026,0,.039v.04s.027.026,0,.026H-29.9c-.027.013,0,.04,0,.04h.224c.027,0-.013.026,0,.039s0,.027,0,.027v.356c0,.014.014.027,0,.04h-.237c-.027,0,.013.026,0,.026s0,.027,0,.04V8.26s-.014.026,0,.026h.237c.014,0,0,.04,0,.04s-.013.026,0,.04v.317c-.013.013,0,.013,0,.026s.014.026,0,.04h-.237c-.014,0,0,.039,0,.039v.026h-.238c-.013.014,0,.04,0,.04h.238c.039,0-.04.026,0,.04h.224c.027.013,0,.026,0,.026v.145c.013.014,0,.027,0,.04s.013.026,0,.04a.018.018,0,0,1,0,.026s.027.039,0,.039h-.224a.024.024,0,0,0,0,.04s-.027.026,0,.026h.224c.027.014,0,.027,0,.04v.066h-.224c-.027.013,0,.04,0,.04h.224c.027,0,0,.039,0,.039v.027c0,.013.013.026,0,.039s.027.027,0,.04h-.224c-.027,0,0,.026,0,.026v.04l-.014.04h.238c.027,0-.013.026,0,.026s0,.026,0,.04v.29h-.238c-.026,0,.014.026,0,.026s-.013.04,0,.04h.238c.027,0,0,.04,0,.04v.422l-.013.066v.106s.026.039,0,.039h-.225c-.026,0,0,.027,0,.04s-.026.026,0,.026h.225c.013.013,0,.027,0,.04v.066c.013.013,0,.026,0,.039s-.013.027,0,.04h.237s.014.027,0,.027H-29.7c-.013.013,0,.026,0,.039v.04c0,.013.013.013,0,.026v.079s-.013.027,0,.027-.027.026,0,.039h.237c.014,0,0,.04,0,.04v.026c0,.014.014.027,0,.04s.027.026,0,.039H-29.7c-.013,0,0,.027,0,.027v.013h.04v.026h.1v-.026c0-.026.026.013.04,0h.132c.013,0,.026.013.039,0h.04s.026-.013.026,0V11.6l.079-.079v-.04h.04l-.04.04v.2c0,.013-.039,0-.039,0s-.027.013-.04,0V11.6l-.422.436V11.8c.013-.013-.027-.04,0-.04h.224c.027-.013,0-.039,0-.039a.046.046,0,0,0,.013-.027h-.092v.027c0,.026-.026-.013-.04,0h-.026s-.039.013-.039,0v-.027h-.04c-.027-.013.013-.039,0-.039s0-.027,0-.04v-.04h.04v-.066h-.04v-.026s-.027-.013-.027,0v.238h-.039v-.238h-.066c-.013,0-.027-.013-.04,0s-.026-.026-.039,0v.238c0,.013-.027,0-.027,0h-.119l-.026-.013c-.013,0-.026.013-.04,0s-.026.026-.039,0v-.225c0-.026-.027,0-.027,0s-.026,0-.039,0-.027-.026-.04,0v.225s-.026.026-.026,0v-.225c-.013-.013-.04-.013-.04,0v.225c0,.026-.039,0-.039,0s-.027.026-.027,0v-.225c-.013-.026-.039,0-.039,0s-.027,0-.04,0h-.211c-.013,0-.027-.013-.04,0a.018.018,0,0,0-.026,0s-.04-.026-.04,0v.225s-.026.026-.04,0v-.225c0-.026-.026,0-.026,0l-.039-.013h-.172c-.013,0-.026-.013-.04,0v.238c0,.013-.039,0-.039,0h-.027v-.238c-.013-.027-.039.013-.039,0s-.027,0-.04,0h-.066c-.013,0-.026-.027-.039,0v.238c0,.026-.027-.014-.027,0h-.04s-.039.013-.039,0v-.238h-.172v.238h-.039v-.238c-.013-.013-.027,0-.04,0h-.237c-.014.013-.027,0-.04,0s-.026-.027-.04,0v.238c0,.013-.026,0-.026,0h-.079v-.238c0-.027-.027,0-.027,0s-.039-.027-.039,0v.224c0,.027-.04,0-.04,0s-.026.027-.026,0-.013-.2-.013-.224-.027,0-.027,0-.026-.027-.04,0v.224c0,.027-.039,0-.039,0v-.224c0-.027-.027,0-.027,0s-.039-.027-.039,0v.224c0,.027-.04,0-.04,0v-.224c0-.027-.026,0-.026,0h-.04c-.026-.013-.039,0-.052,0h-.133c-.013,0-.026.013-.039.013s-.04,0-.053,0-.04.026-.04,0-.039-.224-.039-.224-.04-.014-.04,0a1.656,1.656,0,0,0,.027.237c0,.027-.04,0-.04,0-.013.027-.04.013-.053.013-.053.014-.119.027-.185.04l-.039.013-.053.013-.04.027c-.026,0-.039,0-.052.013l-.04.013c-.027.014-.04.027-.053.027s-.026.013-.053.013c0,.013-.026.053-.039.026s-.106-.2-.106-.2l-.053.027c-.013,0-.053,0-.053.026a1.6,1.6,0,0,0,.119.2c0,.013-.039.027-.039.027s-.04.013-.053.026-.027.026-.04.039l-.079.066-.053.027-.039.04-.027.039-.119.119-.065.092-.027.04-.053.092-.026.04-.026.053-.027.039-.026.053a.076.076,0,0,1-.014.053c-.013,0,.014.04-.013.04a2.219,2.219,0,0,1-.224-.08c-.013,0-.013.053-.013.066l.211.066c.026.014-.013.053-.013.053s-.014.027-.014.04-.013.039-.013.053l-.013.052v.04s-.224-.04-.238-.04-.013.04,0,.053.212.04.225.04a.14.14,0,0,1-.013.04c0,.026-.014.039,0,.052s-.014.027-.014.053v.092l-.013.04v.29s-.026.04,0,.04l.238.013s.013.027,0,.027h-.238c-.026,0,0,.026,0,.026v.475l-.013.027v.039c0,.013.013.027,0,.04v.066c0,.013.026.026,0,.04s.04.026,0,.026h-.224c-.027,0,0,.04,0,.04s-.027.026,0,.026.211.013.224.013,0,.026,0,.026v.04c0,.013-.013.026,0,.04l-.224-.014c-.014.014-.014.04,0,.04l.224.013c.026,0,0,.027,0,.027s-.026.039,0,.039h.238c-.027.014-.013.014,0,.04h-.238c-.026,0,0,.026,0,.026s.013.027,0,.04,0,.026,0,.039.013.027,0,.027h-.238v.04h.238v.079a.018.018,0,0,0,0,.026c0,.013-.026.04,0,.04h.225s.026.039,0,.039h-.225v.317l-.013.145v.212c.013.013,0,.026,0,.039a.019.019,0,0,0,0,.027c.013.013-.026.039,0,.039h.238c0,.013.013.027,0,.04h-.238c-.026,0,.013.026,0,.026s0,.027,0,.04v.1h.238c.026.014-.014.027,0,.04s0,.027,0,.04v.026h-.238c-.013,0,0,.04,0,.04h.238a.125.125,0,0,1-.014.039h-.224c-.026,0,.013.027,0,.027s0,.026,0,.039v.04s-.026.026,0,.026h.224s.014.04,0,.04h-.224c-.013.013,0,.026,0,.04v.105c-.013.013,0,.027,0,.04s.013.026,0,.026H-34.8c-.039.013.027.027,0,.04h.238c.026,0-.013.026,0,.039a.05.05,0,0,1-.013.027v.633h.673c.013-.013.026,0,.04,0s.026.014.039,0,.026.027.026,0V17.1c0-.027.04,0,.04,0h.04s.026-.013.026,0v.237h.04V17.1h.277c.013.013.026,0,.04,0s.026-.013.039,0v.237a.018.018,0,0,0,.027,0h.435a.018.018,0,0,0,.027,0v-.224c0-.026.039,0,.039,0h.172s.039-.026.039,0v.224c0,.027.04,0,.04,0v-.224c0-.026.026.013.026,0s.027,0,.04,0h.066c.013,0,.026-.026.04,0v.238c0,.013.039,0,.039,0s.027.013.027,0v-.238c.013-.026.026,0,.039,0h.04v.238c0,.013.026,0,.026,0s.027-.014.04,0v-.238c0-.013.039,0,.039,0v.238c0,.013.04,0,.04,0v-.238c0-.013.027,0,.027,0h.039s.027-.013.04,0v.238s.026.013.026,0v-.238h.291s.026-.013.026,0,.04-.026.04,0v.238s.039.013.039,0v-.238c0-.013.026,0,.026,0h.04v.238c0,.013.04,0,.04,0h.026v-.238c.013-.013.04,0,.04,0s.039-.013.039,0v.238s.027.026.027,0v-.225c.013-.026.039,0,.039,0v.225c0,.026.027-.014.04,0s.026,0,.039,0h.027s.026.026.04,0v-.225c0-.026.039,0,.039,0v.225c0,.026.027,0,.027,0s.039.026.039,0v-.225h.04s.026-.026.026,0,.04-.026.04,0v.225c.013.013.026,0,.039,0h.106s.026.026.026,0v-.225c.014-.026.04,0,.04,0v.225c0,.026.04,0,.04,0s.026.026.026,0v-.225c.013-.013.026,0,.04,0h.25s.027-.026.04,0v.238h.026c.014,0,.027.013.04,0v-.238c0-.026.04,0,.04,0h.026c.013,0,.026-.013.04,0s.026-.026.039,0v.238s.027.013.027,0v-.238c.013-.026.026,0,.039,0h.04s.026-.026.026,0v.238c.013.026.04-.013.04,0s.026,0,.039,0,.027.026.027,0v-.238c.013-.013.039,0,.039,0h.053v-.013s-.026-.04,0-.04a1.549,1.549,0,0,0,.238.027c.013,0,0-.027,0-.027v-.039c.013-.013,0-.027,0-.04l.013-.026v-.079a.046.046,0,0,1,.013-.027c-.013-.013.027-.04,0-.04s-.237-.026-.237-.026.013-.026.013-.039-.013-.027,0-.027.224.027.224.027l.013-.04v-.04l.41.462h-.027c-.013,0-.026-.013-.039,0v.225c0,.013-.04,0-.04,0v-.225s-.026-.026-.026,0v.225c-.014.026-.027,0-.04,0H-29.3c-.013,0-.039.026-.039,0v-.225c0-.026-.04,0-.04,0H-29.4c-.014,0-.04-.026-.04,0v.225c0,.026-.027-.013-.04,0a.018.018,0,0,1-.026,0h-.079v-.013l-.185-.027v.04l-.013.026v.079s-.027.014-.014.027-.026.026,0,.039.238.027.238.027v.039s.013.027-.013.027-.225-.027-.225-.027c-.026.014-.013.027-.013.04v.066l-.013.04s.224.026.238.026,0,.026,0,.026a.047.047,0,0,1-.014.04s-.211-.026-.224-.026,0,.039,0,.039c-.026.013-.013.027-.013.04v.026s-.027.04,0,.04.211.026.224.026,0,.027,0,.027v.039s-.224-.026-.237-.026,0,.039,0,.039-.027.027,0,.04l.224.013v.04l-.013.039v.066c0,.014.013.027,0,.04s-.211-.026-.238-.026,0,.039,0,.039-.026.027,0,.027.212.026.225.026,0,.026,0,.04,0,.026-.013.026.026.04,0,.04-.212-.027-.225-.027-.013.027-.013.04.013.026,0,.039-.027.027,0,.027.2.026.224.026-.013.027,0,.04a.017.017,0,0,1,0,.026c0,.013.014.027-.013.04,0,0,.027.04,0,.04s-.224-.027-.224-.027a.048.048,0,0,0-.014.04v.066c0,.013.014.026-.013.039,0,0-.211-.026-.224-.026s0,.026,0,.026c-.027.013-.013.027-.013.04v.066a1.484,1.484,0,0,0,.224.026c.026.013,0,.027,0,.04s-.026.026,0,.04a.045.045,0,0,1-.013.026c0,.013-.026.026,0,.039s.211.027.237.027a.045.045,0,0,1-.013.026l-.224-.013c-.026,0,0,.027-.013.027s0,.026,0,.039v.04s-.027.026,0,.026.211.026.224.026,0,.027,0,.04v.027l-.013.039v.066c-.013.013.026.04-.013.04-.014,0-.2-.027-.225-.027s0,.04,0,.04a.049.049,0,0,0-.013.04v.066s-.026.026-.013.039l.237.013v.04c-.013.013,0,.026-.013.039s.027.027,0,.027-.2-.013-.237-.013c-.014,0,0,.026,0,.026s-.027.027,0,.04.224.026.224.026c.026,0,0,.027,0,.027V20l-.013.026c0,.013.013.027,0,.04s-.211-.027-.238-.027v.04c.013,0,.238.026.238.026s.013.027-.013.027l-.225-.013c-.026,0,0,.026-.013.026v.079l.238.013c.026.014-.027.027-.014.04s0,.027,0,.04v.026c0,.013-.013.026-.013.04v.066l-.013.039v.066s.013.04,0,.04-.238-.027-.238-.027-.013.027,0,.04a1.234,1.234,0,0,1,.225.027c.026,0,0,.026,0,.026v.039l-.013.04v.106l-.014.026v.079l-.013.132-.013.04-.013.145v.027l-.013.145-.013.039v.066l-.014.04v.106c-.013,0,0,.013-.013.026v.039h.4l-.449.41.013-.027s.027-.026,0-.026a1.471,1.471,0,0,0-.237-.027.025.025,0,0,1,.013-.039s.211.026.224.026.014-.039.014-.039a.018.018,0,0,1,0-.027v-.039c0-.013.026-.027,0-.04a1.729,1.729,0,0,1-.225-.026c-.026,0,0-.027,0-.027s-.013-.039.013-.039.2.026.225.026-.013-.026,0-.039.013-.027.013-.027v-.04h-.343c-.013-.013-.027,0-.04,0s-.039.014-.039,0v-.237h-.066c-.014,0-.027-.013-.04,0v.224c0,.027-.04,0-.04,0h-.066c-.013,0-.026.013-.039,0s-.013.013-.027,0-.039.027-.039,0v-.224c-.013-.013-.027,0-.04,0h-.132v.224c-.013.04-.039-.013-.039,0s-.027,0-.04,0h-.739c-.014,0-.027.013-.04,0s-.026.027-.026,0V21.5c-.014-.027-.04.013-.04,0s-.026,0-.04,0h-.131c-.014.013-.04-.027-.04,0v.237c-.013.013-.027,0-.04,0h-.066c-.013,0-.026-.013-.039,0h-.04a.018.018,0,0,1-.026,0c-.013-.013-.04.027-.04,0V21.5s-.026-.027-.04,0v.237c-.013,0-.026,0-.026-.013h-.079s-.027.026-.027,0V21.5c-.013-.027-.026,0-.039,0h-.04s-.026-.027-.026,0v.224c-.013.026-.026,0-.04,0h-.039V21.5c0-.014-.027,0-.027,0v.224c-.013.026-.039,0-.039,0s-.027,0-.04,0h-.171c-.014,0-.027.013-.04,0s-.027.026-.04,0,.013-.238.013-.238h-.039c-.013,0-.027-.013-.04,0v.238c0,.026-.039,0-.039,0v-.238c0-.013-.027,0-.027,0v.238c0,.026-.039,0-.039,0h-.04s-.026.026-.026,0v-.238c0-.013-.04,0-.04,0h-.145s-.027-.013-.027,0v.238c-.013.026-.039-.013-.039,0s-.027,0-.04,0h-.026v-.238c-.013-.013-.04,0-.04,0v.238c0,.013-.039,0-.039,0h-.027c-.013,0-.026.013-.039,0s-.027.026-.04,0v-.238c0-.013-.027,0-.027,0h-.039c-.013,0-.026-.026-.04,0v.238c0,.026-.026-.013-.039,0h-.04l-.475.475v.04l-.013.026v.04h-.225c-.026,0,0,.026,0,.026s-.026.04,0,.04h.225c.013.013,0,.026,0,.039a.019.019,0,0,1,0,.027c0,.013.039.026,0,.04h-.225c-.026,0,0,.026,0,.026h.225c.026.013,0,.04,0,.04h-.225c-.026,0,0,.026,0,.026s-.026.04,0,.04h.225c.026.013,0,.026,0,.039v.132c0,.013.013.027,0,.04h-.225c-.026,0,0,.026,0,.026l.225.013c.026,0,0,.027,0,.027V23.2s.026.026,0,.026h-.238c-.013,0,0,.027,0,.027V23.3l.238.013c.026,0-.014.027,0,.027s0,.026,0,.039.026.027,0,.04l-.238-.013s-.013.026,0,.026.224.013.238.013,0,.027,0,.04v.026s.026.04,0,.04-.225-.013-.238-.013,0,.026,0,.026v.04l.238.013c.026.013-.014.026,0,.039s0,.027,0,.04v.026c-.014.014,0,.027,0,.04s.013.026,0,.026-.211-.013-.238-.013.04.027,0,.04a1.329,1.329,0,0,0-.224-.027v.067c.052.013.184.013.224.026s0,.026,0,.026-.013.027,0,.04a.018.018,0,0,1,0,.026c0,.014-.013.027,0,.04s-.026.026,0,.039l.238.014v.066c0,.013.013.026,0,.039s.026.04,0,.04-.225-.026-.238-.026,0,.026,0,.039v.158c0,.014-.013.027,0,.04s-.026.027,0,.04.224.026.224.026,0,.013,0,.027v.1c0,.013.027.027,0,.04,0,0,.027.026,0,.026l-.224-.026c0,.013-.026.026,0,.039s.2.027.224.027,0,.026,0,.026c.027.013,0,.027,0,.04s.027.026,0,.039c0,0,.04.027,0,.027l-.224-.027c0,.014-.026.027,0,.04s.2.026.224.026,0,.027,0,.04v.026c0,.014.027.027,0,.04,0,0,.027.026,0,.026L-34.681,25v.039s-.026.027,0,.027.224.04.224.04c.027.013,0,.013,0,.026v.106c.014.013,0,.026,0,.039v.2c0,.013.014.027,0,.04v.132c0,.013.014.026,0,.039s-.211-.039-.224-.039.013.026,0,.026,0,.027,0,.04v.1s-.026.027,0,.027.2.04.224.053,0,.026,0,.026-.211-.039-.224-.039,0,.026,0,.039-.026.013,0,.026.2.04.224.04,0,.04,0,.04.014.039,0,.039a1.826,1.826,0,0,0-.224-.053s-.013.027,0,.04.224.04.224.04v.343c0,.013.014.04,0,.04s-.211-.053-.224-.053-.013.039,0,.039.224.053.224.053v.238s-.026.026,0,.026a1.41,1.41,0,0,0,.225.053c-.026,0,.04.04,0,.04s-.211-.053-.225-.053,0,.026,0,.039v.027c0,.013.014.026,0,.039s-.211-.052-.224-.052,0,.026,0,.026-.026.026,0,.04a1.37,1.37,0,0,1,.224.052c.027.013,0,.04,0,.04v.37c0,.013.014.039,0,.039s-.2-.053-.224-.066-.013.04,0,.04.224.053.224.053v.1s.027.04,0,.04-.224-.066-.224-.066-.013.026,0,.039.211.053.224.053,0,.026,0,.04v.066a2.063,2.063,0,0,1-.224-.066c-.026,0,0,.039,0,.039s-.013.027,0,.027a1.494,1.494,0,0,0,.224.066c.014.013,0,.039,0,.039v.172s-.211-.066-.224-.066,0,.026,0,.026-.013.027,0,.04a1.493,1.493,0,0,0,.224.066c.027.013,0,.04,0,.04v.818c0,.013.014.027,0,.04v.039s.027.04,0,.027-.211-.079-.211-.079c-.026,0,0,.026,0,.039v.132c0,.013-.013.013,0,.027s.2.079.211.092,0,.026,0,.026v.04c.014.013.027.039,0,.039s-.184-.079-.211-.092,0,.04,0,.04-.013.026,0,.026.2.079.211.093,0,.026,0,.026v.04c0,.013.014.026,0,.039s.027.04,0,.027-.211-.08-.211-.08v.027c0,.013-.026.026,0,.039s.2.08.211.08,0,.039,0,.039v.211l.014.027s-.211-.079-.225-.093,0,.04,0,.04v.026s.2.093.211.093c.027.026,0,.026,0,.039.027.014,0,.027.014.04v.026s-.211-.079-.225-.092v.04c.014,0,.225.092.225.092v.026a1.918,1.918,0,0,1-.225-.092s-.013.026,0,.04.225.092.225.092v.106s-.2-.093-.211-.093-.014.027,0,.027.2.092.211.092,0,.04,0,.04V30.7c-.014.013,0,.026,0,.039v.027c-.014,0-.211-.093-.211-.093s-.027.014,0,.027l.211.106c.026.013-.014.026,0,.026.013.026,0,.026,0,.039v.9s.013.027,0,.027.026.052,0,.039-.185-.1-.2-.119,0,.027,0,.04v.026s-.013.027,0,.04.171.092.211.119c0,.013-.013.013-.013.026.026.026.013.026.013.04v.132s.013.039,0,.039-.211-.118-.211-.118V32.1a.019.019,0,0,0,0,.027c.013.013.184.105.211.118s0,.04,0,.04v.026s.013.04,0,.04-.2-.119-.2-.119,0,.027,0,.027v.079s.185.1.2.119a.018.018,0,0,1,0,.026c0,.013-.013.026,0,.04s0,.026,0,.039v.172s.013.026,0,.026,0,.027,0,.04.026.04,0,.026-.172-.1-.2-.119v.027s-.013.026,0,.039a2,2,0,0,1,.2.132c.026.014,0,.014,0,.027s0,.026,0,.039v.37l.013.145v.3s.172.132.185.132.013.039,0,.039-.185-.131-.185-.131,0,.026,0,.026v.594l.013.132v.039c0,.014-.013.014,0,.027s-.013.026,0,.04-.026.013,0,.039c.013,0,.185.132.185.132v.04c-.013-.013-.185-.145-.185-.145s-.013.026,0,.039l.185.145v.066c-.013-.013-.185-.132-.185-.132v.2c0,.014-.013.014,0,.027s-.013.013,0,.039.185.146.185.146.013.039,0,.039-.185-.158-.185-.158v.251s.172.132.185.145V35.6a2.338,2.338,0,0,1-.185-.158c-.013,0,.027.053,0,.04s-.092-.066-.132-.093a1.248,1.248,0,0,1,.132.132v.027l.013.066v.422c0,.013-.013.013,0,.027s-.013.013,0,.039l.172.158v.027l-.172-.145v.343l.014.132v.277a1.775,1.775,0,0,1-.172-.158v.026l.172.172c.013.013-.014.013,0,.026s0,.027,0,.04v.132c.013.026,0,.026,0,.039s-.014.014,0,.04c.013,0,.145.145.171.158s0,.04,0,.04v.026h-.013l-.172-.158h-.1l-.066-.013h-.132c-.013,0-.027.013-.04,0l-.158-.172c0-.013-.026-.013-.026-.013.013.026.145.171.145.171.013.027-.014,0-.027,0h-.132s-.145-.171-.158-.184h-.027s.132.171.146.184H-35c-.026-.013-.026-.013-.039-.013h-.04a.018.018,0,0,1-.026,0c-.014,0-.014.013-.04,0s-.132-.171-.145-.184a.018.018,0,0,0-.027,0h-.039a2.273,2.273,0,0,1,.145.184h-.026a.05.05,0,0,0-.04-.013c0,.013-.026,0-.026,0h-.106l-.132-.013h-.2l-.04-.013c-.013,0-.013.013-.026,0s-.013.026-.04,0-.118-.159-.132-.185-.026,0-.026,0l-.04-.013c.014.026.093.145.119.2h-.092l-.066-.013h-.132l-.132-.014h-.2a.05.05,0,0,1-.027-.013c0,.013-.052-.026-.039,0s.119.211.119.211-.027.014-.04,0l-.106-.211c-.013-.013-.026,0-.039,0H-36.7c.013.027.093.2.106.211-.013,0-.026-.013-.04-.013h-.026s-.106-.185-.106-.2-.039-.013-.039,0l.1.2c-.013,0-.013.027-.026,0s-.092-.171-.106-.2a.028.028,0,0,0-.039-.013h-.093c-.013.013-.026,0-.039,0s-.04-.026-.027,0,.08.185.093.211h-.027c-.013,0-.026.013-.039,0s-.08-.185-.093-.211-.026,0-.039,0a.044.044,0,0,0-.027-.013h-.066c-.013,0-.039-.013-.039,0s.079.185.092.211-.026,0-.026,0-.027.026-.04,0-.079-.2-.092-.211-.027,0-.027,0h-.066s-.026.013-.039,0a2.107,2.107,0,0,0-.079-.225c-.014-.013-.027,0-.04,0s-.04-.026-.027,0,.08.212.08.212-.013.013-.027,0-.026.026-.039,0-.08-.212-.08-.212-.039-.026-.039,0,.079.2.092.212-.026,0-.039,0h-.066s-.04-.027-.027,0,.079.211.079.211-.026.013-.039,0a.782.782,0,0,0-.079-.211c-.014-.027-.027,0-.027,0s-.026-.014-.039-.014h-.066s-.027-.013-.027,0,.066.212.066.225-.026-.013-.026,0-.027,0-.04,0h-.026s-.027.013-.04,0a1.471,1.471,0,0,0-.066-.225c-.013-.026-.026,0-.039,0s-.027-.026-.027,0,.066.225.066.225a.028.028,0,0,1-.039-.013l-.066-.212h-.027l-.026-.013h-.238s-.026-.026-.026,0a1.707,1.707,0,0,0,.053.225c0,.013-.04,0-.04,0s-.026.013-.026,0a1.707,1.707,0,0,1-.053-.225c-.013-.026-.027,0-.04,0h-.066l-.026-.013h-.04s-.026-.013-.026,0-.04-.026-.04,0a1.964,1.964,0,0,1,.053.238c0,.013-.026,0-.04,0h-.026c-.013-.053-.04-.2-.053-.238s-.026,0-.026,0l.039.224h-.026c-.013-.013-.04-.211-.053-.224s-.013.04-.026,0-.04-.211-.04-.224-.026,0-.04,0-.026.013-.026-.014-.026-.171-.039-.224h-.119c0,.039.026.185.026.224s-.026-.026-.026,0-.013-.013-.027,0,.027.2.027.238-.027-.013-.027,0-.026,0-.039-.013h-.132a1.661,1.661,0,0,1,.026.237c0,.014-.026,0-.026,0s-.027.027-.04,0-.026-.224-.026-.237a.019.019,0,0,0-.027,0c-.013,0-.026.013-.039,0s-.013,0-.027,0-.026.013-.039,0v-.093h-.04c0,.04.013.066.013.093h-.092v.013c-.013.013,0,.026,0,.04v.066l-.013.065c0,.014.013.027,0,.04v.251c.013.013,0,.013,0,.026v.08a.018.018,0,0,1,0,.026V37.7l-.634-.633a.013.013,0,0,0,.013-.013v-.225s.027-.026.027,0,.013.211.013.225.013,0,.026,0h.066l.04.013a.018.018,0,0,1,.026,0h.132s.027-.027.027,0,.013.224.013.224.039.027.039,0-.013-.2-.013-.224.027.013.027,0,.026,0,.039,0h.066a.019.019,0,0,1,.027,0h.079V37s-.027-.027,0-.027h.079c0-.039-.013-.079-.013-.1h-.066c-.027-.013,0-.027,0-.04v-.039a.019.019,0,0,0,0-.027c-.013-.013.026-.026,0-.039h-.238c-.013,0,0-.04,0-.04h.238c.026,0-.013-.027,0-.027s0-.026,0-.039v-.04c-.013-.013,0-.013,0-.026s.026-.04,0-.04h-.238s-.013-.026,0-.039h.238c.026,0,0-.027,0-.027V36.4c0-.013.026-.027,0-.04h-.238c-.013,0,0-.026,0-.026h.238c.026-.014-.013-.04,0-.04s0-.026,0-.04v-.277c0-.013.026-.026,0-.039h-.225c-.026,0,0-.04,0-.04h.225c.026,0,0-.026,0-.026s.026-.04,0-.04h-.225c0-.013-.013-.026,0-.039s-.026-.027,0-.027h.225c.026-.013,0-.026,0-.04v-.1c.013-.013,0-.027,0-.04v-.237l.013-.146v-.211c0-.013.013-.026,0-.039s.026-.027,0-.04h-.238v-.026s-.013-.04,0-.04h.238c.013-.013,0-.026,0-.04v-.171c0-.014.013-.027,0-.04a.018.018,0,0,1,0-.026c0-.013.026-.04,0-.04h-.238c-.013,0,0-.039,0-.039v-.027s-.013-.039,0-.039h.238c.013-.014,0-.027,0-.04v-.106c.013-.013,0-.026,0-.039v-.212c0-.013.013-.013,0-.026s.026-.04,0-.04h-.224c-.014-.013,0-.026,0-.039s-.027-.026,0-.026c0-.014-.027-.04,0-.04h.224v-.106l.013-.145h.225c.013,0,.013-.026,0-.026h-.225c-.026-.014.027-.04,0-.04h-.237c-.027-.013,0-.026,0-.039v-.04h.237c.027,0-.013-.026,0-.026s0-.027,0-.04-.013-.027,0-.04v-.277c-.013-.013,0-.026,0-.04s.013-.026,0-.026h-.237c-.014-.013,0-.04,0-.04v-.1c0-.013-.014-.026,0-.04s-.027-.026,0-.026h.237c.027-.013,0-.027,0-.04v-.039h.238c.013,0,0-.027,0-.027h-.238c-.026-.013.013-.039,0-.039h-.237c-.014,0,0-.04,0-.04s-.014-.026,0-.04h.237s.027-.026,0-.026h-.237c-.014-.013,0-.026,0-.04s.013-.026,0-.039v-.027l.013-.039v-.317c0-.013-.013-.026,0-.04v-.026c0-.013-.013-.027,0-.04s-.027-.026,0-.039h.224a.019.019,0,0,0,0-.027c0-.013.027-.039,0-.039h-.224c-.027,0,0-.04,0-.04v-.026c0-.013-.013-.027,0-.04s-.027-.039,0-.039h.224c.013-.014,0-.027,0-.04a.046.046,0,0,0,.013-.027h-.237c-.027,0,0-.039,0-.039h.237c.014,0,0-.04,0-.04h-.237c-.027,0,0-.026,0-.026v-.04c0-.013-.013-.026,0-.039s-.027-.027,0-.027h.237v-.145h-.237c-.013,0,0-.039,0-.039s-.013-.027,0-.027h.237c-.013-.013,0-.026,0-.04s.014-.026,0-.039.027-.026,0-.026h-.237c-.013-.014,0-.027,0-.04v-.106s-.013-.039,0-.039h.237s.014-.027,0-.04h-.237v-.277c.013-.013,0-.027,0-.04s-.013-.026,0-.026h.237c.027-.013,0-.04,0-.04v-.039s.014-.027,0-.027.027-.039,0-.039h-.224c-.013-.014,0-.027,0-.04v-.106a.018.018,0,0,1,0-.026v-.145c0-.013-.013-.027,0-.04s-.026-.026,0-.039h.224s.027-.027,0-.027h-.224c-.026-.013,0-.026,0-.039s.013-.027,0-.04v-.99h.238c.013,0,0-.027,0-.027h-.238c-.013,0,0-.039,0-.039s-.013-.026,0-.04h.238c.026,0,0-.026,0-.026v-.04s.026-.026,0-.039h-.225c-.026,0,0-.027,0-.027v-.039c-.013-.013,0-.027,0-.04v-.238c0-.013-.026-.039,0-.039h.225c.026-.013,0-.027,0-.04v-.066c0-.013.026-.026,0-.039,0,0,.039-.027,0-.04h-.225s-.026-.026,0-.026h.225c.026-.014,0-.027,0-.04v-.04c.013,0,.013-.013,0-.026a.129.129,0,0,0,.013-.04h-.238c-.013-.013,0-.026,0-.039s-.026-.027,0-.027h.238c.013-.013,0-.039,0-.039v-.04s.013-.026,0-.026h-.238c-.013-.013,0-.04,0-.04h.238c.026,0-.013-.026,0-.039s0-.027,0-.027v-.04h.224c.014,0,0-.039,0-.039h-.224c-.04,0,.013-.026,0-.026h-.238c-.026-.014.014-.04,0-.04s0-.026,0-.04v-.026c0-.013.014-.026,0-.04s-.013-.039,0-.039h.238c.013,0,0-.027,0-.04s.013-.026,0-.026h-.238V27.1c.014-.013,0-.026,0-.04s-.013-.026,0-.026h.238c.013-.013,0-.027,0-.04v-.317c0-.013.013-.026,0-.039h-.224c-.027,0,0-.027,0-.027V26.57c0-.013-.014-.026,0-.04s-.027-.026,0-.039h.224a.019.019,0,0,0,0-.027s.026-.039,0-.039h-.224s-.027-.027,0-.04h.237c.013,0,0-.026,0-.026s0-.027,0-.04v-.04s.013-.026,0-.026h-.237c-.014,0,0-.039,0-.039v-.04h.237c.013,0,0-.027,0-.027v-.079s.013-.026,0-.026h-.237c0-.013-.027-.04,0-.04h.237c.026,0-.013-.026,0-.039a.019.019,0,0,0,0-.027v-.079h-.237c-.014,0,0-.026,0-.026s-.014-.027,0-.04h.237c.013,0,0-.04,0-.04V25.58c0-.013.013-.026,0-.04s.026-.026,0-.039h-.237v-.212h.237c.013,0,0-.026,0-.026s.013-.026,0-.04h-.237c-.014,0,0-.039,0-.039l.013-.027h.224c.013-.013,0-.039,0-.039s.013-.027,0-.04H-39.9c-.027,0,0-.026,0-.026v-.106c0-.013-.013-.026,0-.039v-.04s-.027-.026,0-.026h.224c.026-.014,0-.04,0-.04H-39.9c-.027,0,0-.04,0-.04s-.013-.026,0-.039-.027-.027,0-.027h.224c.026,0,0-.039,0-.039s.026-.027,0-.04H-39.9c-.027,0,.013-.026,0-.026s0-.027,0-.04v-.1s-.027-.027,0-.04h.224c.026,0,0-.027,0-.027l.013-.039c0-.013-.013-.026,0-.04H-39.9c-.013,0,0-.026,0-.026s-.013-.026,0-.04h.237c.027,0-.013-.026,0-.039s0-.027,0-.027v-.039c-.013-.014,0-.027,0-.04v-.026c-.013-.014.027-.04,0-.04H-39.9c-.013-.013,0-.026,0-.039s.026-.027,0-.04h-.225c-.026,0,0-.026,0-.026s-.026-.04,0-.04h.225c.026,0,0-.026,0-.04v-.026h-.225c-.026-.013,0-.027,0-.04a.024.024,0,0,1,0-.039s-.026-.027,0-.027h.225v-.1c0-.013.013-.027,0-.04h-.225c-.026,0,0-.04,0-.04h.225c.026,0,0-.026,0-.026s.013-.026,0-.04.026-.026.013-.039h-.238c-.026,0,0-.027,0-.027v-.039s-.013-.04,0-.04h.238c.013,0,0-.026,0-.026s.013-.04,0-.04h-.238V23.2s-.026-.027,0-.027h.238c.026-.013-.013-.039,0-.039s0-.027,0-.04v-.277c0-.013.013-.027,0-.04h-.238c-.013,0,0-.039,0-.039v-.027h.238c.026-.013-.013-.039,0-.039s0-.027,0-.04V22.57c0-.013.013-.026,0-.04s.026-.026,0-.026h-.238c-.013-.013,0-.04,0-.04s-.013-.026,0-.039h.238c.026,0,0-.027,0-.027s-.013-.026,0-.039,0-.027,0-.04v-.026h.237c.014-.013,0-.04,0-.04v-.039l-.752-.74V21.7c-.013.026-.027-.013-.04,0v.237h-.039V21.7h-.04s-.026-.027-.026,0v.237c-.013.014-.027,0-.04,0s-.026.014-.039,0V21.7c0-.013-.027,0-.027,0v.237c0,.014-.039,0-.039,0V21.7c0-.027-.04,0-.04,0h-.027c-.013,0-.026-.027-.039,0v.237a.14.14,0,0,1-.04-.013H-40.9c-.013,0-.026.013-.039,0s-.027.027-.027,0V21.7c-.013-.027-.026,0-.039,0h-.04s-.026-.027-.026,0v.224c-.014.027-.027,0-.04,0s-.026.013-.039,0V21.7c0-.04-.027.026-.027,0s-.039.039-.039,0v-.238h-.066c-.014.026-.04-.04-.04,0V21.7c-.013.026-.027-.027-.04,0s-.026-.04-.039,0v.224c0,.027-.027,0-.027,0s-.026,0-.039,0h-.04a.018.018,0,0,1-.026,0c-.013,0-.04.027-.04,0V21.7c-.013-.027-.026,0-.039,0s-.014-.013-.027-.013h-.106c-.013.013-.026,0-.039,0s-.027-.014-.04,0v.237s-.026.027-.026,0v-.237c-.013-.014-.04.013-.04,0s-.039-.014-.039,0v.237s-.027.013-.027,0v-.237h-.039s-.04-.014-.04,0v.237a.018.018,0,0,1-.026,0h-.08s-.026.013-.039,0,.013-.2.013-.237-.039.013-.039,0-.04-.014-.04,0v.237s-.027.013-.04,0v-.237s-.026-.027-.026,0v.237c-.013.027-.027-.013-.04,0s-.026,0-.039,0h-.066v-.237c0-.014-.04,0-.04,0a.018.018,0,0,1-.026,0c-.013-.014-.027,0-.04,0h-.33a.013.013,0,0,1-.013.013h-.238c-.013,0,0,.026,0,.026h.238c.026.013-.013.026,0,.04s0,.026,0,.039-.013.027,0,.027,0,.026,0,.039-.027.04,0,.04h.224s.027.026,0,.026H-42.9c-.027.014.013.027,0,.04s0,.026,0,.04v.2l-.541-.542.065.014h.489a.046.046,0,0,0-.013-.027c.013-.013,0-.026,0-.039v-.172c0-.013.013-.027,0-.04v-.026c0-.013.026-.04,0-.04h-.225c-.026,0,0-.039,0-.039h.225c.026,0,0-.04,0-.04s-.027-.026,0-.026h.237c.014,0,0-.04,0-.04s-.013-.026,0-.04H-42.9c-.013,0,0-.026,0-.026s.013-.026,0-.04v-.039s-.013-.027,0-.027-.027-.039,0-.039h.237v-.04s.027-.026,0-.026H-42.9c-.013-.013,0-.027,0-.04v-.039a.044.044,0,0,0,.013-.027c-.013-.013,0-.026-.013-.039l.013-.145v-1.2c.013-.013,0-.026,0-.039v-.027c0-.013-.013-.026,0-.04h.238c.013,0,0-.039,0-.039s.013-.026,0-.026h-.238v-.08c0-.013.013-.013,0-.026s.013-.027,0-.04.026-.026,0-.039h-.224v-.027s-.027-.039,0-.039h.224c.026-.014,0-.027,0-.04v-.132l.013-.04v-.039h-.237c-.014,0,0-.04,0-.04h.237v-.528s-.026-.026,0-.026h.238v-.04c0-.013.013-.026,0-.039h-.238c-.026,0,0-.027,0-.027h.238c.013-.013,0-.039,0-.039v-.04h-.238c-.013,0,0-.026,0-.026s.013-.027,0-.04.027-.026,0-.04H-43.1c-.027,0,0-.039,0-.039h.224c.027,0-.013-.027,0-.027s0-.026,0-.039V17.7s.027-.04,0-.04H-43.1c-.013,0-.027-.026,0-.039h.224c.027,0,0-.027,0-.027v-.079c0-.013.013-.013,0-.026v-.04c0-.013.027-.026,0-.04H-43.1c-.027,0,0-.026,0-.026s-.027-.04,0-.04h.224V17.3a.045.045,0,0,1,.013.026h.027a.018.018,0,0,0,.026,0h.225a.018.018,0,0,0,.026,0h.079a.019.019,0,0,0,.027,0c.013,0,.039.04.039,0V17.1c.013-.027.027,0,.04,0h.026v.224c0,.027.04.013.04.013s.026-.013.039,0h.132c.014-.013.04.027.04,0V17.1c0-.027.026.013.04,0a.018.018,0,0,1,.026,0h.106v.237c.013.014.039,0,.039,0h.04c0-.013.026.027.026,0V17.1c.013-.013.04,0,.04,0s.026-.013.039,0v.237c0,.027.04,0,.04,0s.026.014.026,0V17.1c.014-.013.027,0,.04,0h.211a.05.05,0,0,1,.04.013v.224c0,.027.026,0,.026,0h.04s.026.027.04,0v-.224s.026-.026.026,0v.224h.079s.027.027.027,0v-.224c.013-.026.039,0,.039,0h.04c0-.013.026-.026.026,0v.224c.013.027.04,0,.04,0s.039.027.039,0v-.224s.027-.026.04,0v.224s.026.027.026,0v-.224c.014-.026.027,0,.04,0s.026,0,.04,0h.1v.224c0,.027.027,0,.027,0h.039s.027.027.04,0v-.224c0-.013.026-.013.026,0v.224c.013,0,.027.014.04,0s.026.027.039,0v-.224c0-.013.027,0,.027,0s.039-.026.039,0v.224l.013.014h.014l.607-.608c-.026,0-.2-.013-.238-.013s.014-.026,0-.026v-.04s-.013-.026,0-.026h.238c.026-.013,0-.04,0-.04h-.224c-.027,0,0-.039,0-.039v-.027h.224c.013-.013,0-.04,0-.04v-.039c.013-.013,0-.013,0-.026V16.22c.013-.013,0-.026,0-.039v-.027c0-.013-.013-.026.013-.039,0-.013-.039-.027,0-.04h.225c.026,0,0-.026,0-.026s.026-.027,0-.04h-.225c-.026,0,0-.026,0-.039a.019.019,0,0,1,0-.027v-.4l.013-.066v-.132a1.53,1.53,0,0,0-.237-.013c-.013,0,0-.027,0-.04l.237.013c.027,0-.013-.026,0-.039l.225.013c.026,0,.013-.04.013-.04s.013-.026,0-.039h-.238v-.211c.014-.014,0-.027,0-.04s-.013-.026,0-.026h.238s.026-.027,0-.027-.211-.013-.224-.013,0-.026,0-.04v-.026h.224c.013,0,0-.027,0-.027l-.224-.013c-.027,0,0-.039,0-.039v-.2c.013-.014-.027-.04,0-.04s.2.013.237.013c.013-.013,0-.039,0-.039v-.04s.013-.026,0-.026-.211-.013-.237-.013.013-.027,0-.04a.017.017,0,0,1,0-.026v-.08c0-.013.013-.013.013-.026s0-.027,0-.04v-.528l.013-.026s.013-.04,0-.04-.238-.013-.238-.013-.013-.04,0-.04l.238.014v-.211s-.013-.027,0-.027-.026-.04,0-.04l.238.014v-.027c0-.013.013-.026,0-.039s-.212-.014-.238-.014,0-.039,0-.039V13.1l.013-.145v-.106l-.237-.013c-.014,0,0-.04,0-.04s-.014-.026,0-.026l.237.013v-.04a.018.018,0,0,0,0-.026c-.013-.013.027-.026,0-.04l-.237-.013s-.014-.039.013-.039l.224.013c.027,0,0-.027,0-.027s-.013-.026,0-.039a.019.019,0,0,0,0-.027v-.039l.013-.04v-.092l.014-.027.013-.132v-.066l.013-.039v-.066l.013-.027v-.039a.019.019,0,0,0,0-.027.045.045,0,0,1,.013-.026s.027-.027,0-.04-.224-.039-.224-.039-.013-.027,0-.027.224.04.224.04.027-.027.014-.04-.225-.039-.225-.039-.026-.027,0-.027.211.04.225.04.013-.026.013-.04v-.026a.04.04,0,0,0,.013-.026c0-.014.013-.027,0-.04s.04-.026.013-.026-.237-.053-.237-.053-.014-.027.013-.027.2.04.224.04-.026-.027.014-.027.2.04.224.04-.027-.026,0-.026l-.224-.053c-.027,0-.212-.04-.225-.04s.013-.026,0-.039,0-.014.013-.027-.013-.039.013-.026l.225.039v-.026a.045.045,0,0,0,.013-.026,1.826,1.826,0,0,0-.224-.053c-.014-.013,0-.026,0-.04s-.014-.026.013-.026a1.826,1.826,0,0,1,.224.053c.027,0,.013-.04.013-.04s.027-.013,0-.026-.184-.053-.224-.053.013-.027.013-.04,0-.013,0-.026l.013-.04.014-.026.013-.026.211.052c.027.013.013-.026.013-.026s0-.026.014-.026a.049.049,0,0,1,.013-.04s.026-.013,0-.027a1.926,1.926,0,0,1-.225-.066c-.013-.013.013-.026.013-.026l.014-.04.013-.026c0-.013-.013-.026,0-.04s-.013-.026.013-.026.2.066.224.079.014-.039.014-.039a.05.05,0,0,0,.013-.027s.026-.013,0-.026a2.216,2.216,0,0,0-.211-.079c-.013-.014.013-.027.013-.027l.013-.039V10.57a.04.04,0,0,0,.013-.026s.211.079.225.079.013-.026.013-.026v-.04c.013,0,.013-.013.013-.026s.027-.014.013-.027.04-.013.014-.026-.212-.092-.212-.092,0-.027.014-.027-.014-.04.013-.026.2.079.211.079.013-.013.013-.026,0-.027.013-.027-.013-.04.013-.026.212.092.212.092,0-.026.013-.026c-.026-.013.04,0,.013-.027s-.185-.079-.211-.092.026-.013.013-.04.04,0,.013-.026-.185-.079-.211-.093c0-.013.013-.026.013-.039s.013-.013.013-.027l.027-.026c0-.013-.013-.026.013-.026,0,0-.013-.04.013-.027s.2.093.2.106c.027,0,.013-.027.027-.027a.045.045,0,0,1,.013-.026.051.051,0,0,1,.013-.04L-39,9.963s.027,0,.014-.026c0,0-.185-.106-.2-.106s.014-.026.014-.026a.046.046,0,0,1,.013-.027c0-.013.013-.026.026-.039l.014-.027a.04.04,0,0,1,.013-.026c.013,0,.013-.013.013-.027s0-.026.026-.026c0,0-.013-.04.013-.026s.2.118.2.118l.026-.052c.013,0,.026,0,.026-.027,0,0-.184-.119-.2-.119s.014-.026.014-.026.026-.013.026-.026,0-.027.013-.027a1.661,1.661,0,0,1,.2.132c.013,0,.013-.026.013-.026l-.184-.132c-.027-.027.013-.027.013-.027-.013-.026.013-.026.013-.026l.026-.04s-.013-.026.014-.026c.026.026.158.119.184.145s.014-.026.027-.026.013-.013.013-.027l.026-.026a.039.039,0,0,1,.014-.026s-.172-.133-.185-.133a.028.028,0,0,1,.026-.026c.013.013.185.145.185.145s.013-.026.013-.026l.027-.027.013-.026.039-.04.027-.026.013-.026.026-.027s.014,0,.014-.013-.159-.145-.172-.158.026-.027.026-.027l.027-.026a2.048,2.048,0,0,0,.171.158c0,.014.027-.013.014-.026a1.869,1.869,0,0,1-.172-.145l.053-.053c0-.013,0-.027.013-.027s.013-.013.026-.026,0-.026.027-.013a1.81,1.81,0,0,1,.158.158.028.028,0,0,0,.027-.026s.026,0,.026-.013l-.172-.172s.014-.026.027-.013a.909.909,0,0,1,.158.158c.027.013.027-.013.027-.013a1.909,1.909,0,0,0-.159-.171c0-.014.027-.027.027-.027l.158.172c.013,0,.026-.027.026-.027l.014-.013s-.145-.158-.159-.172.027-.026.027-.026l.026-.026s.145.171.158.185l.027-.027c-.013-.013-.159-.172-.159-.172l.027-.026.053-.04.013-.013.026-.026c.013-.013.013-.026.027-.026s.013-.014.026-.014.013-.026.026-.026.146.185.146.185.013-.014.026-.027l.026-.013.027-.013.026-.027a.013.013,0,0,0,.013-.013s-.118-.171-.132-.185l.027-.026c0,.013.132.185.132.185s.026,0,.026-.013l.027-.013c.013-.014.026,0,.026-.027,0,0-.119-.172-.132-.185s.026-.013.026-.013l.027-.026.026-.014.027-.026c.013,0,.013-.013.026-.013s.119.171.132.185.026-.014.026-.014.014-.013.027-.013.013-.013.026-.013l.027-.026c.013,0,.026.013.026-.014s.04.014.027-.013-.106-.171-.119-.2S-37.374,8-37.374,8l.026-.026.053-.027.027-.026c.013,0,.026-.013.039-.013A.049.049,0,0,1-37.2,7.89l.026-.013c.013-.013.013-.026.026-.013s.014-.026.027-.026c.013.026.1.184.119.211s.026-.013.026-.013-.106-.2-.106-.212.027-.013.027-.013.013-.026.026-.013a1.586,1.586,0,0,1,.106.211c.013,0,.026-.026.026-.026s.027,0,.027-.013.039.013.026-.014-.079-.171-.092-.2.026-.014.026-.014c0-.026.013-.013.027-.013l.026-.026.026-.014.04-.013a.045.045,0,0,1,.026-.013c.013,0,.013-.013.027-.013.013.026.079.185.092.211s.04-.013.04-.013-.093-.2-.093-.211.027-.014.027-.014l.026-.013c.013,0,.013-.013.027-.013s.026-.026.039-.013.079.224.079.224.027-.013.04-.013l.026-.013s.027,0,.027-.013.039.026.026-.013c-.013-.014-.066-.185-.079-.212s.026-.013.026-.013a.05.05,0,0,0,.027-.013s.026-.027.039-.013a2.145,2.145,0,0,0,.08.224c.013,0,.013-.013.026-.013l.026-.013h.027s.039,0,.039-.014a2.364,2.364,0,0,1-.079-.224c0-.026.027,0,.027-.013h.039l.027-.013s.065.211.065.224.04-.013.04-.013a.044.044,0,0,0,.027-.013s.026.026.026,0a1.471,1.471,0,0,0-.066-.225c0-.026.04-.013.04-.013s.013-.026.026,0,.053.185.066.211.026,0,.026,0,.027,0,.027-.013.039.013.039,0a2.063,2.063,0,0,1-.066-.224l.027-.014h.039c.014-.013.014-.026.027-.013s.026-.039.039-.013a2.051,2.051,0,0,0,.053.238A.049.049,0,0,0-35.7,7.56s.026.014.026-.013a1.4,1.4,0,0,0-.053-.224c.013-.013.027,0,.04,0l.026-.013c.013,0,.027.013.04,0s.013,0,.026-.014h.066l.027-.013h.039l.027-.013s.026-.027.039,0,.027.2.027.224.039,0,.039,0h.027s.026.014.026-.013l-.026-.224h.026s.027-.027.04,0,.026.224.026.224a.018.018,0,0,0,.026,0h.04l.026-.013s-.026-.211-.026-.225.04,0,.04,0,.013-.013.026-.013c0,.027.013.2.013.238.013.013.04,0,.04,0H-35l.027-.013c.013,0,.026.026.039,0,0,0-.013-.212-.013-.225s.027,0,.027,0h.039v.225c.013.026.04,0,.04,0h.052s.04.026.04,0-.013-.238-.013-.238h.106s.013.211.013.238.039,0,.039,0h.027a1.443,1.443,0,0,0,.013.237h.026V7.455c0-.013.027.026.04,0s-.013-.238-.013-.238.039-.013.039,0v.238h.251s.027-.027.04,0v.237c.013-.026.026.027.039,0s-.013-.211-.013-.237.04,0,.04,0,.026.026.039,0h.027s.039.026.039,0V7.23h.238s.013.212.013.225.027.013.027,0V7.23c.013-.013.026,0,.039,0h.132s.04-.026.04,0v.225s.039.026.039,0V7.23c0-.026.027,0,.027,0h.224a.019.019,0,0,1,.027,0v.225c.013.026.039,0,.039,0h.04a.04.04,0,0,0,.026.013c.013,0,.04.013.04,0V7.23c0-.026.039,0,.039,0h.027s.04-.026.04,0v.238c.013.013.026,0,.039,0s.026.013.04,0,.026.026.026,0V7.23h.251v.238h.039c0-.013-.013-.238-.013-.238s.027,0,.04,0h.171c.014.013.027,0,.04,0s.027-.013.04,0v.238c0,.013.039,0,.039,0h.027s.039.026.039,0V7.23a.019.019,0,0,1,.027,0h.079c.013,0,.026.013.04,0v.238c0,.013.026,0,.026,0h.04V7.23c0-.026.026.013.039,0h.066s.026-.013.04,0v.238c0,.026.026,0,.026,0s.026,0,.04,0,.026.026.039,0V7.243c0-.026.027,0,.027,0h.079a.018.018,0,0,1,.026,0h.04c.013,0,.026-.026.039,0v.225c0,.026.027,0,.027,0V7.243c0-.026.039,0,.039,0s.027-.013.04,0v.225c0,.026.027,0,.027,0s.039.026.039,0V7.243c.013-.013.027,0,.04,0h.066c.013-.013.026,0,.039,0s.027.014.027,0V7.006c.013-.026.039,0,.039,0s.027-.026.04,0v.237c0,.027.026-.013.026,0s.027,0,.04,0h.317V7.006h.039v.237c.014.014.027,0,.04,0h.066c.013,0,.026-.013.04,0h.066c.013,0,.026-.013.039,0h.027c.013,0,.026-.026.039,0v.238c0,.013.04,0,.04,0V7.243c0-.013.026,0,.026,0s.027.014.04,0,.026,0,.039,0h.515V7.151l.014-.132V6.808c0-.013.013-.027,0-.04V6.742l.5.5a.013.013,0,0,0-.013.014v.224c0,.027-.027,0-.027,0s-.039.027-.039,0V7.257C-29.255,7.217-29.269,7.257-29.282,7.243Zm-4.541,8.819v.1h-.039c-.014,0-.027.027-.04,0v-.184l-.053-.053h.013c.014.013.04-.013.04.013v.04l.079.079v-.119c0-.013.026,0,.026,0v.145l.067.079h-.027c-.013,0-.026.027-.04,0v-.079Z" transform="translate(1123.966 284.188)"/><path class="b" d="M-40.41,22.874V23.1l-.132-.132v-.092a.017.017,0,0,1,.026,0h.106Z" transform="translate(1123.966 284.188)"/><path class="b" d="M-41.044,22.253c.013,0-.013.027,0,.04v.171l-.211-.211Z" transform="translate(1123.966 284.188)"/><path class="b" d="M-40.476,15.943v.066l-.066.066v-.132h.039S-40.476,15.93-40.476,15.943Z" transform="translate(1123.966 284.188)"/><path class="b" d="M-42.866,16.748v.093c-.013.013,0,.026-.013.039s.027.04,0,.04h-.158Z" transform="translate(1123.966 284.188)"/><path class="b" d="M-43.2,17.092v.237c0,.027-.039,0-.039,0h-.027v-.185Z" transform="translate(1123.966 284.188)"/><path class="b" d="M-43.3,17.184v.145c-.013.013-.027,0-.04,0h-.1Z" transform="translate(1123.966 284.188)"/><path class="b" d="M-39.75,37.065v.013c-.013.013,0,.026,0,.04v.066l-.013.065c0,.014.013.027,0,.04v.251c.013.013,0,.013,0,.026v.08a.018.018,0,0,1,0,.026V37.7l-.634-.633a.013.013,0,0,0,.013-.013v-.225s.027-.026.027,0,.013.211.013.225.013,0,.026,0h.066l.04.013a.018.018,0,0,1,.026,0h.132s.027-.027.027,0,.013.224.013.224.039.027.039,0-.013-.2-.013-.224.027.013.027,0,.026,0,.039,0h.066a.019.019,0,0,1,.027,0Z" transform="translate(1123.966 284.188)"/><path class="b" d="M-40.542,22.966V23.1c-.013.026-.027-.013-.04,0s-.026,0-.039,0h-.027v.238h-.039V23.1c0-.026-.027.04-.04,0V22.86c0-.026-.027.014-.027,0h-.079s-.026-.013-.026,0V23.1c-.013.026-.04,0-.04,0h-.039s-.027.026-.027,0V22.86c-.013-.026-.026.014-.039,0s-.027,0-.04,0h-.013v-.039c0-.013.026-.027,0-.04,0,0,.04-.026,0-.039h-.224c-.014-.014,0-.014,0-.027s-.027-.026,0-.039h.224c.026,0,0-.04,0-.04h-.224c-.014,0,0-.026,0-.026h.224c.026-.014,0-.04,0-.04a.049.049,0,0,0,.013-.04v-.066Z" transform="translate(1123.966 284.188)"/><path class="b" d="M-33.163,16.432c.013.013,0,.026,0,.039V16.5h-.224l.145.146H-33.4c-.014,0,0-.04,0-.04v-.026c0-.013-.014-.027,0-.04s-.027-.026,0-.04l-.3-.316c.013,0,.013,0,.013-.014v-.224c.013-.026.027,0,.04,0h.039v.224h.027v-.224c.013-.026.026,0,.039,0h.04v.224c0,.027.026.014.026,0v-.224c.013-.026.04,0,.04,0h.053s-.027.027,0,.027h.053v.079h-.053c-.027,0,0,.026,0,.026l-.013.04v.066c0,.013-.014.039,0,.039h.237c.013,0,0,.04,0,.04H-33.4c-.027,0,.013.026,0,.026s0,.027,0,.04v.039s-.014.027,0,.027h.237C-33.136,16.405-33.176,16.432-33.163,16.432Z" transform="translate(1123.966 284.188)"/><path class="b" d="M-40.978,16.524l-.224.211V16.6c.013-.013,0-.026,0-.039s-.013-.04,0-.04Z" transform="translate(1123.966 284.188)"/><path class="b" d="M-40.965,16.352s.014-.039,0-.039H-41.2c-.013-.013,0-.04,0-.04s-.027-.026,0-.04h.237v-.026s.014-.04,0-.04h-.145v-.1h.145c.027-.013-.013-.027,0-.04a.017.017,0,0,0,0-.026v-.053s.027-.026.04,0v.238c0,.026.026-.014.026,0s.027,0,.04,0h.211l-.317.33v-.159Z" transform="translate(1123.966 284.188)"/><path class="b" d="M-42.681,21.936H-42.9c-.027.014.013.027,0,.04s0,.026,0,.04v.2l-.541-.542.065.014h.489a.013.013,0,0,1-.013.013h-.238c-.013,0,0,.026,0,.026h.238c.026.013-.013.026,0,.04s0,.026,0,.039-.013.027,0,.027,0,.026,0,.039-.027.04,0,.04h.224S-42.654,21.936-42.681,21.936Z" transform="translate(1123.966 284.188)"/></g></svg>