<svg width="76" height="32" viewBox="0 0 76 32" fill="none" xmlns="http://www.w3.org/2000/svg">
<g clip-path="url(#clip0)">
<path d="M12.0332 14.654C9.1944 14.8608 5.56709 15.4018 5.59863 16.4043C5.63017 17.4545 8.29545 19.4595 11.8124 20.7803C11.9701 18.6162 12.0174 16.3566 12.0332 14.654ZM1.6559 3.84938C0.725419 3.8812 0.015728 3.46748 -4.28688e-05 2.89463C-0.0158138 2.4809 0.898899 1.16017 1.45088 0.953306C1.82938 0.810094 3.69035 0.0940322 6.78145 -0.00144264C7.93272 -0.0332676 9.87255 0.109945 11.5127 0.348632C21.0541 1.78076 31.0844 9.11641 31.2737 15.6405C31.3998 20.0801 27.6148 24.2333 20.2025 24.456C18.2469 24.5197 16.4332 24.2651 14.7773 23.8355C14.7458 24.9175 14.8246 25.5063 13.2948 25.5381C12.3644 25.5699 12.0016 24.0423 11.8597 22.8011C7.38074 20.7962 4.69969 17.55 4.65238 16.2611C4.58929 14.3516 8.04312 12.7604 12.0647 12.1239C12.1278 10.5485 12.3801 6.50676 13.216 6.49085C13.5472 6.47494 14.2411 7.25465 14.4934 8.44808C14.73 9.53013 14.7615 11.5033 14.7615 11.8534L15.0612 11.8374C20.7072 11.6624 24.0979 13.4446 24.161 15.561C24.2083 17.1999 22.7732 18.0433 22.0161 18.0592C21.2591 18.0751 20.376 17.6455 20.376 17.4068C20.3602 16.9613 21.9846 16.8499 21.9688 16.1179C21.9373 15.0199 17.4426 14.5426 14.6669 14.5267C14.6669 15.4814 14.6511 16.6112 14.6669 17.3909C14.6827 18.1229 14.73 20.0324 14.7615 21.6236C16.0232 21.8941 17.3164 22.0373 18.5781 22.0055C21.5588 21.91 28.3876 20.8121 28.2299 15.6405C28.0249 8.43217 13.8784 1.79667 6.29255 2.01944C3.31185 2.11492 1.51396 2.43317 1.52974 2.7355C1.52974 2.92645 2.98066 3.00602 2.99643 3.40383C2.99643 3.78573 2.16057 3.83346 1.6559 3.84938Z" fill="black"/>
<path fill-rule="evenodd" clip-rule="evenodd" d="M33.4186 11.7434C33.9075 11.7275 34.6014 12.905 34.633 13.6529C34.6487 14.3849 34.8222 18.2516 34.8853 19.3655C34.9326 20.4794 34.9011 21.5455 34.8222 22.0388C34.7434 22.5321 34.5699 22.7708 33.734 22.8026C32.8982 22.8344 32.5039 22.3252 32.4408 21.5773C32.362 20.8294 32.3146 18.7131 32.3462 17.6629C32.3777 16.5967 32.425 14.5758 32.567 13.3187C32.6931 12.0298 33.0401 11.7593 33.4186 11.7434Z" fill="black"/>
<path fill-rule="evenodd" clip-rule="evenodd" d="M38.276 3.08702C38.1341 2.73695 37.6768 2.02089 36.005 2.08454C32.3777 2.19592 29.5863 4.90105 29.6494 7.04923C29.6651 7.74938 29.9963 8.35405 30.4852 8.84734C30.3591 9.19742 30.3433 9.4361 30.3433 9.5634C30.3591 9.92939 30.911 10.916 31.3369 10.9001C31.6996 10.8841 31.9361 10.55 32.2831 9.99304C32.8824 10.2158 33.4659 10.3431 33.939 10.3272C37.3456 10.2317 40.4524 7.00149 40.3894 4.93287C40.3578 3.97812 39.7427 3.0552 38.276 3.08702ZM33.119 8.21084C33.5448 7.60617 35.7212 4.67827 37.9606 4.59871C38.623 4.5828 38.7965 4.99652 38.8123 5.44207C38.828 6.14222 37.5664 8.21084 34.6961 8.30632C34.081 8.32223 33.5448 8.27449 33.119 8.21084ZM31.3526 7.22427C31.3053 7.14471 31.258 7.00149 31.2422 6.77872C31.2265 6.30134 32.0308 4.48732 34.0652 4.34411C33.5448 4.7101 33.0243 5.15565 32.5039 5.74441C32.0308 6.31726 31.6365 6.81054 31.3526 7.22427Z" fill="black"/>
<path fill-rule="evenodd" clip-rule="evenodd" d="M42.266 11.5525C44.2689 11.4888 46.7607 11.7593 46.7765 12.3958C46.7922 12.7777 46.5872 13.5574 45.5306 13.6688C44.2689 13.7961 37.929 14.0666 37.9605 14.8623C37.9763 15.276 39.8846 15.3715 41.6194 15.4828C43.4173 15.5942 46.3033 15.6579 46.3822 18.5858C46.4453 20.8931 45.5779 21.3864 45.1994 21.5773C44.7105 21.816 43.0387 22.4525 41.7613 22.4843C37.9132 22.5957 36.3203 20.368 36.2888 19.2382C36.2573 18.2357 37.2824 17.3446 39.0172 17.281C40.752 17.2332 43.4173 17.8538 43.433 18.5699C43.4488 19.1586 42.266 19.4451 41.7455 19.461C39.3957 19.5246 39.5061 18.5699 38.1498 18.6017C37.377 18.6176 36.2888 20.2884 40.1684 20.1611C43.6223 20.0497 44.6632 18.904 44.6474 18.2994C44.6158 17.4878 42.1398 17.09 40.7047 17.0104C39.2695 16.9309 37.1247 16.9468 36.3834 16.4694C35.6422 16.008 35.7526 14.9418 36.0049 14.0666C36.5569 12.2526 40.2788 11.6161 42.266 11.5525Z" fill="black"/>
<path fill-rule="evenodd" clip-rule="evenodd" d="M49.0948 12.3163C50.4511 12.2685 53.2741 18.4426 53.7473 18.4426C54.2204 18.4267 53.8734 16.9945 53.5738 15.4192C52.8956 11.8548 51.8232 10.009 52.8326 9.97713C53.5738 9.96121 55.9867 12.3163 56.1287 16.8991C56.1918 19.0154 55.8921 21.8001 53.9838 21.8637C52.1702 21.9115 50.12 16.1512 49.6468 16.1671C49.3945 16.1671 49.3787 19.7315 49.2999 20.8135C49.2368 21.8797 48.8583 22.4684 48.2748 22.4843C47.3758 22.5162 46.9815 21.641 46.9342 19.9224C46.8711 18.188 47.4231 12.364 49.0948 12.3163Z" fill="black"/>
<path d="M62.8155 15.642C63.4621 15.6261 64.0141 15.5147 63.9668 16.358C63.9037 17.2014 63.8722 17.5356 63.2098 17.5515L59.7875 17.6469C59.6771 18.0288 59.3774 19.0154 59.2513 19.4291C59.0936 19.9543 59.5982 19.8429 60.2764 19.636C60.9388 19.4451 62.7682 19.095 63.5094 19.0791C64.2507 19.0632 64.8184 20.2566 64.3926 20.6703C63.9668 21.084 61.6485 23.0572 59.2355 23.1208C58.1946 23.1527 56.791 22.2456 56.7437 20.6067C56.7122 19.7474 57.0591 18.5858 57.3903 17.6788C57.3115 17.631 57.2484 17.5037 57.2011 17.2491C57.0907 16.6604 56.8383 16.008 57.8004 15.9125C57.8792 15.8966 57.9738 15.8966 58.0842 15.8807L58.8885 14.2098C58.5574 14.1621 58.2893 14.0825 58.0685 13.9871C57.4849 13.7006 57.0276 12.9687 57.0118 12.6504C56.996 11.9344 62.2004 11.5047 63.399 11.4729C64.6922 11.4411 65.055 11.6798 65.4808 12.2844C65.8908 12.8732 66.0485 13.3028 66.0485 13.462C66.0485 13.6211 65.9066 14.0348 64.3453 14.0825C63.541 14.1144 62.2478 14.2417 61.0018 14.2894L60.4656 15.7374C61.68 15.6897 62.8155 15.642 62.8155 15.642Z" fill="black"/>
<path fill-rule="evenodd" clip-rule="evenodd" d="M66.3483 20.6226C64.9446 23.4073 64.0142 26.3511 64.0772 28.5788C64.1561 31.0771 65.6701 32.0159 66.1432 32C66.6006 31.9841 66.6321 31.2521 66.711 30.6952C67.1841 27.5763 67.9884 24.8076 68.9189 22.4684C69.2816 22.5639 69.6444 22.6116 69.9913 22.5957C72.8301 22.5162 76.1104 19.095 76.0158 15.451C75.9527 13.5256 75.2273 12.173 74.0129 12.2049C72.2308 12.2526 69.6601 14.9896 67.5942 18.3948C67.4049 17.0104 68.4931 14.8782 69.4236 13.3824C70.0702 12.3322 69.9598 11.091 69.6917 11.091C69.3132 11.1069 65.6543 14.2258 65.7805 18.5221C65.7805 19.3496 65.9855 20.0497 66.3483 20.6226ZM70.1333 19.7474C71.8365 16.3739 73.6029 14.4644 74.2179 14.4326C75.2904 14.4167 74.3914 19.3178 70.1333 19.7474Z" fill="black"/>
</g>
<defs>
<clipPath id="clip0">
<rect width="76" height="32" fill="white"/>
</clipPath>
</defs>
</svg>
