<svg width="86" height="37" viewBox="0 0 86 37" fill="none" xmlns="http://www.w3.org/2000/svg">
<path d="M80.1707 36.0454V36.1686H80.4783V36.9696H80.6013V36.1686H80.8782V36.0454H80.1707Z" fill="black"/>
<path d="M81.0007 36.0449V36.9692H81.093V36.2298L81.3391 36.9692H81.493L81.7083 36.2298V36.9692H81.8313V36.0449H81.6775L81.4007 36.8151L81.1546 36.0449H81.0007Z" fill="black"/>
<path d="M39.9312 19.3164C39.9004 19.224 39.8389 19.1624 39.7466 19.1624H30.1791C30.0868 19.1624 29.9945 19.224 29.9945 19.3164C29.9945 19.3164 24.7031 36.7844 24.7031 36.8152C24.7031 36.9076 24.7647 36.9692 24.8569 36.9692H31.1635C31.225 36.9384 31.2558 36.9076 31.2558 36.846L31.9941 34.5046C32.0249 34.443 32.0864 34.4122 32.148 34.4122H37.9623C38.0238 34.4122 38.0854 34.4738 38.1161 34.5046L38.8545 36.846C38.8545 36.9076 38.916 36.9384 38.9468 36.9692H45.161C45.2533 36.9692 45.3149 36.9076 45.3149 36.8152C45.3456 36.7844 39.9312 19.3164 39.9312 19.3164ZM36.4241 29.5446H33.8092C33.7169 29.5446 33.6554 29.4521 33.6554 29.3289C33.6554 29.2981 35.0398 24.831 35.0398 24.831C35.1013 24.6769 35.1013 24.6461 35.1013 24.6461C35.132 24.6461 35.132 24.6461 35.1628 24.831C35.1628 24.831 36.5472 29.2981 36.5472 29.3289C36.5779 29.4521 36.5164 29.5446 36.4241 29.5446Z" fill="black"/>
<path d="M76.5401 24.9234H85.3385V19.1624H74.0174C72.9715 19.1624 71.464 19.7169 70.6334 20.3331C69.772 20.98 68.5415 22.3972 68.5415 24.3997C68.5415 26.4022 69.7413 27.9426 69.7413 27.9426C70.3566 28.7128 71.9255 30.3148 71.9255 30.3148C71.9563 30.3456 71.987 30.4072 71.987 30.4688C71.987 30.592 71.8947 30.6845 71.7717 30.6845H63.0655C62.0196 30.6845 61.9273 30.2531 61.9273 30.1915C61.9273 30.0683 62.0503 30.0067 62.0503 30.0067C62.4503 29.8218 63.2501 29.1749 63.2501 29.1749C64.9729 27.8193 65.1882 26.0017 65.1882 25.0158C65.1882 24.03 65.0344 22.2739 63.2809 20.7336C61.5273 19.1932 59.2816 19.1624 59.2816 19.1624H46.853V36.8768C46.853 36.9384 46.9146 36.9692 46.9453 36.9692H53.8672V32.0092C53.8672 31.9168 53.9902 32.0092 53.9902 32.0092L57.5896 35.6445C58.8817 36.9384 60.9736 37 60.9736 37H74.6019C76.94 37 78.2321 35.7369 78.5705 35.3672C78.9089 35.0283 80.1087 33.6728 80.1087 31.4855C80.1087 29.2981 79.0935 28.1582 78.6935 27.6653C78.3244 27.2032 76.7862 25.6012 76.4785 25.2623C76.4478 25.2315 76.417 25.1699 76.417 25.1391C76.417 25.0158 76.4785 24.9542 76.5401 24.9234ZM57.928 26.433H54.0517C54.0517 26.433 53.9595 26.4022 53.9595 26.2789V24.3073C53.9595 24.184 54.0517 24.1532 54.0517 24.1532H57.6203C58.0203 24.1532 58.8817 24.3689 58.8817 25.3239C58.8509 26.3098 57.928 26.433 57.928 26.433Z" fill="black"/>
<path d="M21.5346 36.9695C21.5962 36.9695 21.6269 36.9387 21.6269 36.8771C21.6269 36.8771 26.9798 19.2859 26.9798 19.2551C26.9798 19.1934 26.9491 19.1626 26.9183 19.1626H20.3349C20.3041 19.1626 20.2733 19.1934 20.2733 19.2243L18.9197 23.8146C18.9197 23.8454 18.889 23.8762 18.8582 23.8762C18.8274 23.8762 18.7967 23.8454 18.7967 23.8146L17.3815 19.2243C17.3815 19.1934 17.3508 19.1626 17.32 19.1626H10.029C9.99823 19.1626 9.99823 19.1934 9.96746 19.1934L8.67538 23.7838C8.67538 23.8146 8.64462 23.8454 8.61386 23.8454C8.58309 23.8454 8.55233 23.8146 8.55233 23.7838L7.19872 19.1934C7.19872 19.1626 7.16796 19.1318 7.1372 19.1318H0.0922911C0.0307635 19.1318 0 19.1934 0 19.2243V19.2551C0 19.2551 5.41442 36.8463 5.44519 36.8463C5.44519 36.9079 5.50672 36.9387 5.53748 36.9387H11.3826C11.4134 36.9387 11.4441 36.9079 11.4749 36.8463L13.5053 30.2842C13.5053 30.2534 13.5361 30.2226 13.5668 30.2226C13.5976 30.2226 13.6284 30.2534 13.6284 30.2842L15.5972 36.8463C15.5972 36.8771 15.628 36.9079 15.6895 36.9079C15.6588 36.9695 21.5346 36.9695 21.5346 36.9695Z" fill="black"/>
<path d="M16.4586 0.0310538C15.4127 0.0310538 13.9052 0.58559 13.0746 1.20174C12.2132 1.84871 10.9827 3.26587 10.9827 5.26837C10.9827 7.27088 12.1825 8.81126 12.1825 8.81126C12.7977 9.58146 14.3667 11.1835 14.3667 11.1835C14.3974 11.2143 14.4282 11.2759 14.4282 11.3375C14.4282 11.4607 14.3359 11.5532 14.2129 11.5532C14.1821 11.5532 0 11.5532 0 11.5532V17.8379H17.0739C19.4119 17.8379 20.704 16.5748 21.0424 16.2051C21.3808 15.8662 22.5806 14.5107 22.5806 12.3233C22.5806 10.136 21.5654 8.99611 21.1655 8.47238C20.7963 8.01026 19.2581 6.40825 18.9505 6.06937C18.9197 6.03856 18.889 5.97694 18.889 5.94614C18.889 5.85371 18.9197 5.7921 19.012 5.76129H27.2259V17.8071H33.5633V5.7921H41.2542V0.000244141H16.4586V0.0310538Z" fill="black"/>
<path d="M76.756 11.5221C75.71 11.5221 75.6177 11.0908 75.6177 11.0292C75.6177 10.9059 75.7408 10.8443 75.7408 10.8443C76.1407 10.6595 76.9405 10.0125 76.9405 10.0125C78.6633 8.65698 78.8787 6.83932 78.8787 5.85347C78.8787 4.86762 78.7248 3.11158 76.9713 1.5712C75.2178 0.0308096 72.972 0 72.972 0H60.5435V17.7145C60.5435 17.7761 60.605 17.8069 60.6665 17.8069H67.5884V12.8468C67.5884 12.7544 67.7114 12.8468 67.7114 12.8468L71.3108 16.4821C72.6029 17.7761 74.6948 17.8377 74.6948 17.8377H85.3391V11.5221H76.756ZM71.6184 7.30143H67.7422C67.7422 7.30143 67.6499 7.27062 67.6499 7.14739V5.1757C67.6499 5.05247 67.7422 5.02166 67.7422 5.02166H71.3108C71.7107 5.02166 72.5721 5.23732 72.5721 6.19236C72.5413 7.17821 71.6184 7.30143 71.6184 7.30143Z" fill="black"/>
<path d="M53.9595 0.1848C53.9288 0.0923772 53.8672 0.0307617 53.7749 0.0307617H44.2074C44.1151 0.0307617 44.0228 0.0923772 44.0228 0.1848C44.0228 0.1848 38.7314 17.6528 38.7314 17.6836C38.7314 17.776 38.793 17.8376 38.8853 17.8376H45.1918C45.2534 17.8068 45.2841 17.776 45.2841 17.7144L46.0225 15.373C46.0532 15.3114 46.1148 15.2806 46.1763 15.2806H51.9906C52.0522 15.2806 52.1137 15.3114 52.1445 15.373L52.8828 17.7144C52.8828 17.776 52.9443 17.8068 52.9751 17.8376H59.1894C59.2816 17.8376 59.3432 17.776 59.3432 17.6836C59.3739 17.6528 53.9595 0.1848 53.9595 0.1848ZM50.4524 10.413H47.8375C47.7452 10.413 47.6837 10.3206 47.6837 10.1973C47.6837 10.1665 49.0681 5.69939 49.0681 5.69939C49.1296 5.54535 49.1296 5.51454 49.1296 5.51454C49.1296 5.51454 49.1604 5.51454 49.1911 5.69939C49.1911 5.69939 50.5755 10.1665 50.5755 10.1973C50.6063 10.3206 50.5447 10.413 50.4524 10.413Z" fill="black"/>
</svg>
