<svg width="360" height="37" viewBox="0 0 360 37" fill="none" xmlns="http://www.w3.org/2000/svg">
<path d="M119.211 17.0659C118.418 17.0659 117.709 17.4832 117.375 18.1925C116.916 19.1522 117.375 20.2371 118.418 20.6544C118.585 20.7378 118.877 20.8213 119.253 20.8213H123.968C124.051 20.8213 124.093 20.863 124.093 20.9465V29.3751C124.093 29.542 124.01 29.7089 123.885 29.7924C121.464 31.5031 117.584 33.1722 113.119 33.1722C104.148 33.1722 98.1396 27.2471 98.1396 18.4012V18.3177C98.1396 10.1394 104.44 3.71361 112.535 3.71361C118.21 3.71361 121.339 5.59128 123.843 7.63586L123.885 7.67758C123.968 7.76104 124.218 7.88622 124.427 7.96967C125.47 8.38693 126.722 7.96967 127.181 6.96825C127.556 6.17546 127.348 5.21576 126.597 4.67332C122.299 1.37696 118.293 0 112.702 0C107.361 0 102.479 2.00285 98.9741 5.63301C95.636 9.05455 93.8418 13.6027 93.8418 18.4429V18.5263C93.8418 29.3334 101.728 36.8441 113.036 36.8441C118.46 36.8441 123.885 34.9247 127.932 31.5449L128.182 31.3362V17.2328C128.182 17.1494 128.141 17.1077 128.057 17.1077H119.253C119.253 17.0659 119.211 17.0659 119.211 17.0659Z" fill="black"/>
<path d="M169.157 17.0659C168.364 17.0659 167.655 17.4832 167.321 18.1925C166.862 19.1522 167.321 20.2371 168.364 20.6544C168.531 20.7378 168.823 20.8213 169.199 20.8213H173.914C173.998 20.8213 174.039 20.863 174.039 20.9465V29.3751C174.039 29.542 173.956 29.7089 173.831 29.7924C171.452 31.5031 167.53 33.1722 163.107 33.1722C154.136 33.1722 148.127 27.2471 148.127 18.4012V18.3177C148.127 10.1394 154.428 3.71361 162.523 3.71361C168.198 3.71361 171.327 5.59128 173.831 7.63586L173.872 7.67758C173.956 7.76104 174.206 7.88622 174.415 7.96967C175.458 8.38693 176.71 7.96967 177.169 6.96825C177.544 6.17546 177.336 5.21576 176.585 4.67332C172.287 1.37696 168.281 0 162.69 0C157.349 0 152.467 2.00285 148.962 5.63301C145.624 9.05455 143.83 13.6027 143.83 18.4429V18.5263C143.83 29.3334 151.716 36.8441 163.024 36.8441C168.448 36.8441 173.872 34.9247 177.92 31.5449L178.17 31.3362V17.2328C178.17 17.1494 178.128 17.1077 178.045 17.1077H169.241C169.199 17.0659 169.199 17.0659 169.157 17.0659Z" fill="black"/>
<path d="M261.205 16.3983H249.855V4.33951H261.455C266.713 4.33951 269.884 6.42581 269.884 9.97252V10.056C269.884 13.9782 266.546 16.3983 261.205 16.3983ZM249.855 20.1537H261.539C265.419 20.1537 271.929 20.9465 271.929 26.1205V26.2039C271.929 30.0845 268.298 32.5046 262.415 32.5046H249.855V20.1537ZM269.216 17.7753C272.429 16.0228 274.182 13.2272 274.182 9.80562V9.72216C274.182 7.42723 273.305 5.42439 271.595 3.8388C269.341 1.7525 265.795 0.584167 261.539 0.584167H245.808C245.725 0.584167 245.641 0.667617 245.641 0.751069V36.0513C245.641 36.1765 245.725 36.2599 245.85 36.2599H262.29C270.718 36.2599 276.185 32.2959 276.185 26.2039V26.1205C276.185 22.24 273.806 19.3609 269.216 17.7753Z" fill="black"/>
<path d="M75.6492 0.625916C74.4809 0.625916 73.5212 1.50217 73.5212 2.58704V21.322C73.5212 28.9162 69.4738 33.0887 62.0465 33.0887C54.6193 33.0887 50.3632 28.7075 50.3632 21.0717V2.58704C50.3632 1.50217 49.4035 0.625916 48.2352 0.625916C47.0669 0.625916 46.1072 1.50217 46.1072 2.58704V21.322C46.1072 30.8773 52.1575 36.8024 61.8796 36.8024C71.6018 36.8024 77.652 30.7521 77.652 21.0299V2.58704C77.7772 1.50217 76.8175 0.625916 75.6492 0.625916Z" fill="black"/>
<path d="M316.2 32.5045H296.714C296.63 32.5045 296.547 32.4211 296.547 32.3376V2.62871C296.547 1.58556 295.754 0.667588 294.627 0.584136C293.376 0.458958 292.291 1.37694 292.291 2.54526V36.093C292.291 36.1764 292.374 36.2599 292.458 36.2599H316.325C317.493 36.2599 318.453 35.3002 318.328 34.1736C318.203 33.2139 317.243 32.5045 316.2 32.5045Z" fill="black"/>
<path d="M358.051 32.5046H337.23C337.146 32.5046 337.063 32.4211 337.063 32.3376V20.4457C337.063 20.2788 337.188 20.1536 337.396 20.1536H353.336C354.379 20.1536 355.339 19.4443 355.422 18.4429C355.547 17.3163 354.588 16.3566 353.419 16.3566H337.355C337.188 16.3566 337.021 16.2314 337.021 16.0645V4.46468C337.021 4.38122 337.104 4.29776 337.188 4.29776H357.967C359.094 4.29776 359.97 3.46324 359.97 2.42009C359.97 1.37694 359.052 0.542419 357.967 0.542419H332.932C332.848 0.542419 332.765 0.625882 332.765 0.709334V36.093C332.765 36.1764 332.848 36.2599 332.932 36.2599H357.884C358.927 36.2599 359.887 35.5505 359.97 34.5491C360.179 33.4642 359.261 32.5046 358.051 32.5046Z" fill="black"/>
<path d="M4.25605 4.33951H16.0228C19.1105 4.33951 21.6141 5.00712 23.3248 6.21718C24.9522 7.38551 25.7867 9.05456 25.7867 11.1409V11.2243C25.7867 13.3523 24.827 15.1883 23.0328 16.4401C21.2385 17.6918 18.7767 18.3595 15.8559 18.3595H4.25605V4.33951ZM16.1897 0.584167H0.0417254L0 34.2988C0.041726 35.3419 0.959698 36.2182 2.12803 36.2182C3.25463 36.2182 4.21433 35.3419 4.25605 34.2571V22.0313H15.1465L26.1205 35.3837C26.5795 35.9678 27.1219 36.2182 27.8313 36.2182C28.4154 36.2182 28.9161 36.0096 29.3334 35.634C29.7506 35.2585 29.9593 34.7578 29.9593 34.2153C29.9593 33.7564 29.7924 33.3391 29.5003 32.9636L19.945 21.4054C26.3291 20.2371 30.0845 16.4401 30.0845 11.1409V11.0574C30.0845 8.47039 28.9996 5.96683 27.0802 4.21434C24.5766 1.87768 20.6961 0.584167 16.1897 0.584167Z" fill="black"/>
<path d="M219.771 22.9493H202.789L211.301 5.50784L219.771 22.9493ZM214.055 2.21148C213.554 1.21006 212.511 0.584167 211.342 0.584167C210.216 0.584167 209.173 1.16834 208.672 2.16976L193.15 33.506C193.025 33.7563 192.941 34.0484 192.941 34.3405C192.941 35.3837 193.859 36.2599 194.986 36.2599C195.779 36.2599 196.53 35.8009 196.822 35.1333L200.911 26.7047H221.607L225.654 35.0499C225.696 35.0916 225.696 35.175 225.696 35.175C226.072 35.8426 226.781 36.2599 227.574 36.2599C228.742 36.2599 229.66 35.3837 229.66 34.2988C229.66 34.0484 229.618 33.7563 229.493 33.506L214.055 2.21148Z" fill="black"/>
</svg>
